<svg id="Layer_5" data-name="Layer 5" xmlns="http://www.w3.org/2000/svg" viewBox="0 0 523.33 914.62"><defs><style>.cls-1{fill:#231f20;}.cls-2{fill:#db212f;}.cls-3{fill:#14385f;}.cls-4{fill:#f9cca0;}.cls-5{fill:#fff;}.cls-6{fill:#e9343b;}.cls-7{fill:#f0f0ee;}.cls-8{fill:#603a17;}.cls-9{fill:#e6af93;}.cls-10{fill:#0f5486;}.cls-11{fill:#b1731e;}.cls-12{fill:#f7941e;}.cls-13{fill:#0276b0;}</style></defs><title>bg2</title><path class="cls-1" d="M1061.53,646.9c-17,30.27-28.38,51.08-20.81,85.13,7.57,39.73,20.81,68.11,15.13,109.72-11.35,77.56-9.28,121.85,9.64,195.63,10.5-18.14,30.8,14.33,34.1,18.52,10.89,13.83,38.11,24.53,63.73,25.22,46.06,1.24,29.26-54,29.29-87.79,0-44.18-1.59-88.5-.54-132.67,1.89-79.45-20.81-160.8-60.54-228.9" transform="translate(-754.67 -577.66)"/><path class="cls-2" d="M799.48,1487.27l200.07,5c-5.19-303.54,46.7-487.74,46.7-487.74l-59.05-10.37C848.78,1139.93,799.48,1487.27,799.48,1487.27Z" transform="translate(-754.67 -577.66)"/><path class="cls-1" d="M895.5,1373c-21.36-11-44.61-22.94-68.43-23-3.09,12.63-5.9,24.73-8.43,36.14,16.05-4.3,34.49,4.43,60.85,18,21,10.79,44.77,23,70.46,25.47q4.78,0.46,9.47.46a91.11,91.11,0,0,0,39.94-9.16q0.25-21.42.86-41.87C966.21,1406.89,937.49,1394.62,895.5,1373Z" transform="translate(-754.67 -577.66)"/><path class="cls-1" d="M940.74,1226.17c13.61,9.41,28.34,19.59,49.45,19.59a75.46,75.46,0,0,0,18-2.31q1.78-19.81,3.77-38.13c-24.17,10.8-33.9,4.09-51.32-7.95-17-11.73-38.87-26.86-77.34-26.72-4.75,11.87-9.27,23.83-13.56,35.79C906.11,1202.25,923,1213.9,940.74,1226.17Z" transform="translate(-754.67 -577.66)"/><path class="cls-1" d="M999.43,1484.71q-0.29-20.42-.24-40.09c-43.69,29.89-83.21,11.85-124.85-7.17-18.2-8.31-35.4-16.17-52.57-19.39a89.2,89.2,0,0,0-9.65-1.27c-2.68,13.15-4.9,24.87-6.7,34.79,13.55-.47,30.65,6.88,54.38,17.71,16.38,7.48,34.28,15.64,53.43,20.83l66.54,1.66A116.35,116.35,0,0,0,999.43,1484.71Z" transform="translate(-754.67 -577.66)"/><path class="cls-1" d="M907.89,1308.28c-20-9.87-41.63-20.57-63.93-21.76-3.48,12-6.73,23.89-9.76,35.41,15.67-2.63,33.5,5.52,58.2,17.72,21,10.39,42.77,21.13,66.88,23.37q4.5,0.42,8.9.42a85.91,85.91,0,0,0,32.8-6.4q0.82-21.21,2-41.3C973.26,1338.47,946.61,1327.41,907.89,1308.28Z" transform="translate(-754.67 -577.66)"/><path class="cls-1" d="M1016.34,1102.06c-3.44-.55-13.78-6.34-21.4-10.61-4.19-2.35-8.32-4.89-12.7-7.59-13.27-8.18-28.61-17.62-46.61-20.52-6.84,11.34-13.39,23.12-19.65,35.24,15.65-4.08,28.07,2.87,47.9,15.08,4.49,2.77,9.13,5.63,14,8.33,15.94,8.93,27,15.12,38.75,15.12a33.43,33.43,0,0,0,3.83-.22l0.21,0c2.38-16.34,4.78-31.27,7.11-44.73C1023.2,1096.59,1018.49,1101,1016.34,1102.06Z" transform="translate(-754.67 -577.66)"/><path class="cls-1" d="M943.49,1050.73c14.84-1.81,25.83,3.61,43.72,16.45,13.44,9.64,25.17,16.13,37.26,16.13a33.85,33.85,0,0,0,4.89-.37c3.53-19.61,6.84-35.73,9.57-48.14l-1,1.05c-5,5.1-11.17,11.41-13.62,12.43-1-.13-5.07-1.22-16.66-9.54-12.58-9-25.42-17.26-40.71-21C958.76,1028.08,951,1039.13,943.49,1050.73Z" transform="translate(-754.67 -577.66)"/><path class="cls-1" d="M969.84,1140.83c-15.14-10.33-34.09-23.23-62.24-25.45-5.54,11.45-10.83,23.14-15.89,35,26.56-2.34,42.13,8.27,58.41,19.37,12.88,8.79,26.19,17.87,43.71,19.12q2,0.14,4,.14a59.64,59.64,0,0,0,16.24-2.32q2.54-21.5,5.24-40.64C998.11,1160.11,988.63,1153.65,969.84,1140.83Z" transform="translate(-754.67 -577.66)"/><path class="cls-1" d="M933.94,1253.72c-18.93-10-41.21-21.67-72.66-22.86-3.94,11.76-7.68,23.47-11.2,35,28.85-1.57,47.77,8.37,67.58,18.79,16.42,8.63,33.4,17.56,54.75,18.5q1.84,0.08,3.69.08a92.29,92.29,0,0,0,27.85-4.47q1.28-20,2.83-38.79C975.31,1275.47,958,1266.37,933.94,1253.72Z" transform="translate(-754.67 -577.66)"/><path class="cls-1" d="M1075,1397.6c12.28,5,26,10.66,41.06,10.66a57.6,57.6,0,0,0,8.63-.64c-0.24-11.14-.62-23.1-1.19-35.66-10.21,3.5-20-.5-35.24-6.74-21.89-9-50.3-20.57-87.42-4.16q-0.73,19.85-1.15,40.65C1031.63,1379.87,1051.82,1388.12,1075,1397.6Z" transform="translate(-754.67 -577.66)"/><path class="cls-1" d="M1067.46,1340.26c12.47,5.29,27.29,11.58,43.55,11.58a59.88,59.88,0,0,0,11.33-1.07c-0.7-11.51-1.56-23.39-2.63-35.5-10.91,4-21.74-.08-38.59-7.22-20.45-8.67-46.76-19.82-77.42-5.56q-1.32,21.16-2.3,43.65C1026.64,1323,1043,1329.87,1067.46,1340.26Z" transform="translate(-754.67 -577.66)"/><path class="cls-1" d="M1075.15,1251.61c-17.12-7.4-37.43-16.17-67.28-4.58q-1.73,19.72-3.21,40.87c26.52-17.14,38.8-11.86,56.6-4.17,11.19,4.83,23.8,10.29,39.61,10.29a73,73,0,0,0,16.58-2q-1.37-12.65-3.05-25.46-0.63-4.77-1.31-9.54C1098.27,1261.58,1088.28,1257.28,1075.15,1251.61Z" transform="translate(-754.67 -577.66)"/><path class="cls-1" d="M1040.75,1189.4a98.55,98.55,0,0,0-27.54,4.66q-0.59,5.19-1.17,10.49-1.5,13.79-2.89,28.46c30.86-14.09,43.82-8.12,58.48-1.35,10.31,4.76,22,10.14,37.93,9.2,1.67-.1,3.35-0.29,5-0.52-1.8-11.61-3.76-23.18-5.83-34.6-8.24.7-14.6-2.22-22.48-5.86C1071.91,1195.08,1059,1189.12,1040.75,1189.4Z" transform="translate(-754.67 -577.66)"/><path class="cls-1" d="M1040.9,1168.81c11.73-1.08,21.16,3.34,32.08,8.46,8.16,3.83,17.54,8.22,28.32,9.83-2.58-13.38-5.27-26.44-8-39-1.73-.78-3.55-1.63-5.47-2.53-12.9-6.05-29-13.58-50.15-11.63a81.21,81.21,0,0,0-17.15,3.55q-2.77,19.09-5.44,40.71C1024.59,1172.69,1033.22,1169.52,1040.9,1168.81Z" transform="translate(-754.67 -577.66)"/><path class="cls-1" d="M1066.87,1071.42c2.94,1.53,6.12,3.17,9.56,4.66-4.71-18.73-8.73-33.75-11.36-43.52a54.52,54.52,0,0,0-25.26-1.69c-2.35,10.46-5.2,23.94-8.28,40.29C1047.44,1061.34,1054.61,1065.06,1066.87,1071.42Z" transform="translate(-754.67 -577.66)"/><path class="cls-1" d="M1125,1431.2c-11.93,2.24-25.45-2.1-44.23-8.76-16.79-6-34.14-12.13-53-11.46a70.24,70.24,0,0,0-28.39,6.9q-0.28,21.32-.18,43.57c20.24-22.17,38.37-17.2,69.84-6,15.24,5.41,31,11,47.77,11.33h1.55c2.17,0,4.3-.11,6.4-0.29C1125,1457.06,1125.07,1445.11,1125,1431.2Z" transform="translate(-754.67 -577.66)"/><path class="cls-1" d="M1073.75,1481.68c-20.2-7.69-45.38-17.27-74.43-7q0.09,8.75.23,17.63l124.53-2.59s0.14-3,.32-8.37C1109.41,1494.38,1097.31,1490.65,1073.75,1481.68Z" transform="translate(-754.67 -577.66)"/><path class="cls-1" d="M1064.29,1121.91c7.52,3.39,15.89,7.17,25.3,9.32-3.27-14.53-6.5-28.18-9.55-40.61l-1.34-.61c-13-5.86-29.18-13.16-48.8-10-2.14,11.77-4.37,24.85-6.61,39.2C1038.47,1110.26,1048,1114.56,1064.29,1121.91Z" transform="translate(-754.67 -577.66)"/><path class="cls-1" d="M1198.73,1416a128.2,128.2,0,0,0,37.05-13.31c-2.47-11.49-5.2-23.75-8.17-36.58-8.9,7.35-20.83,12.52-35.91,15.61-22.93,4.7-48.32,3.24-67.83-.24,0.49,12.64.8,24.59,1,35.59a243.46,243.46,0,0,0,35.3,2.65A193.12,193.12,0,0,0,1198.73,1416Z" transform="translate(-754.67 -577.66)"/><path class="cls-1" d="M1077.68,1038.22h0.19c3.63-.08,7.23-0.3,10.71-0.65a118.31,118.31,0,0,0,12.36-1.92,62.41,62.41,0,0,0-6.69-5.17l-32.43-10.38c0.14,1,1.85,7.2,4.61,17.49a107.32,107.32,0,0,0,11.06.63h0.19Z" transform="translate(-754.67 -577.66)"/><path class="cls-1" d="M1240.35,1424.46c-7.43,8.49-21.24,14.24-48.62,20.1-16.21,3.47-42.27,3.13-66.71-2.05,0,15.22-.28,27.41-0.52,35.59a236,236,0,0,0,41.41,3.74,162.53,162.53,0,0,0,33.14-3.05c20.53-4.4,36.38-9.49,48.58-16.24C1245.81,1452.14,1243.36,1439.24,1240.35,1424.46Z" transform="translate(-754.67 -577.66)"/><path class="cls-1" d="M1071.24,1055.8c2.72,10.44,5.88,22.82,9.26,36.67a108.16,108.16,0,0,0,11.39.67h0.38c16-.35,30.53-3.37,43.37-9a250.13,250.13,0,0,0-18.61-30.36,80.45,80.45,0,0,1-25.32,4.38C1085.82,1058.12,1078.76,1057.05,1071.24,1055.8Z" transform="translate(-754.67 -577.66)"/><path class="cls-1" d="M1126.74,1362.56c11.92,1.34,25.43,2.87,40.88,1,22.35-2.64,40.63-8.59,55.13-18.07-2.93-12.18-6.06-24.75-9.36-37.52-10.55,11.76-26.47,18.07-49.89,20.83-11.44,1.35-22.32.13-32.84-1.06-3.31-.37-6.64-0.75-10-1,1,12.14,1.71,24,2.31,35.41Z" transform="translate(-754.67 -577.66)"/><path class="cls-1" d="M1175.39,1179.62c-4-11.75-8.21-23.2-12.45-34.22-17.43,14.46-40.07,17.62-59.21,16.87-2.48-.16-5-0.43-7.57-0.75,2.42,11.6,4.79,23.56,7.07,35.74,1.92,0.07,3.82.11,5.7,0.11C1134.74,1197.38,1157.22,1191.23,1175.39,1179.62Z" transform="translate(-754.67 -577.66)"/><path class="cls-1" d="M1159.74,1306.7l0.38,0c19.49-2.36,35.66-7.44,48.9-15.39-3.18-11.94-6.5-24-10-36-10,9.14-23.94,14.34-43,16.67-11.47,1.1-26.5,0-41.2-1.38,1.54,11.94,2.85,23.81,4,35.5,8.92,0.77,17.91,1.33,26.44,1.33C1150.31,1307.34,1155.16,1307.15,1159.74,1306.7Z" transform="translate(-754.67 -577.66)"/><path class="cls-1" d="M1132.87,1253.71c24.61-1.5,44.48-7.62,60.3-18.59-3.66-12.23-7.44-24.37-11.34-36.3-11.66,12.56-27.93,18.55-51.08,20-7.92.48-15.81-.49-24-1.82,2.07,12,4,24,5.76,36.12a128.67,128.67,0,0,0,14.05.83C1128.65,1253.9,1130.75,1253.84,1132.87,1253.71Z" transform="translate(-754.67 -577.66)"/><path class="cls-1" d="M1100.72,1145c21.37,0,40.16-5.05,56.08-15.06-4.74-11.55-9.58-22.51-14.5-32.67-12,9-26.87,13.23-44.79,12.68a98.27,98.27,0,0,1-13.28-1.94c2.72,11.51,5.53,23.8,8.33,36.66,1.08,0.1,2.15.18,3.22,0.24l0.38,0Q1098.46,1145,1100.72,1145Z" transform="translate(-754.67 -577.66)"/><path class="cls-1" d="M1185.24,983.79a3.57,3.57,0,0,0-.25-2.2c-0.53-.77-3.27-1.12-4.75-2.88,0,0,.56-1.09,3.18-0.94,2.16,0.13,3,1.23,3.19,2.24a8.79,8.79,0,0,1-.26,4.17" transform="translate(-754.67 -577.66)"/><path class="cls-1" d="M1179.28,976.66a3.6,3.6,0,0,0,.25,2.2c0.53,0.77,3.27,1.13,4.75,2.88,0,0-.56,1.09-3.19.94-2.16-.12-3-1.23-3.19-2.24a8.81,8.81,0,0,1,.26-4.18" transform="translate(-754.67 -577.66)"/><path class="cls-1" d="M1184.19,978.22a3.56,3.56,0,0,0-.25-2.2c-0.53-.77-3.27-1.13-4.75-2.88,0,0,.56-1.09,3.19-0.93,2.16,0.13,3,1.23,3.18,2.24a8.8,8.8,0,0,1-.26,4.18" transform="translate(-754.67 -577.66)"/><path class="cls-1" d="M1178.24,971.09a3.59,3.59,0,0,0,.25,2.2c0.53,0.77,3.27,1.13,4.75,2.88,0,0-.56,1.09-3.19.94-2.16-.13-3-1.23-3.18-2.24a8.8,8.8,0,0,1,.26-4.18" transform="translate(-754.67 -577.66)"/><path class="cls-1" d="M1183.15,972.65a3.57,3.57,0,0,0-.25-2.2c-0.53-.77-3.27-1.13-4.75-2.88,0,0,.56-1.09,3.18-0.94,2.16,0.13,3,1.23,3.19,2.24a8.82,8.82,0,0,1-.26,4.18" transform="translate(-754.67 -577.66)"/><path class="cls-1" d="M1177.2,965.52a3.59,3.59,0,0,0,.25,2.2c0.53,0.77,3.27,1.13,4.75,2.88,0,0-.56,1.09-3.19.94-2.16-.13-3-1.23-3.19-2.24a8.8,8.8,0,0,1,.26-4.18" transform="translate(-754.67 -577.66)"/><path class="cls-1" d="M1182.11,967.08a3.56,3.56,0,0,0-.25-2.2c-0.53-.77-3.27-1.13-4.75-2.88,0,0,.56-1.09,3.18-0.94,2.16,0.13,3,1.23,3.19,2.24a8.79,8.79,0,0,1-.26,4.18" transform="translate(-754.67 -577.66)"/><path class="cls-1" d="M1176.15,959.95a3.59,3.59,0,0,0,.26,2.2c0.53,0.77,3.27,1.13,4.75,2.88,0,0-.56,1.09-3.19.94-2.16-.13-3-1.23-3.19-2.24a8.79,8.79,0,0,1,.26-4.18" transform="translate(-754.67 -577.66)"/><path class="cls-1" d="M1181.07,961.5a3.56,3.56,0,0,0-.25-2.2c-0.53-.77-3.27-1.13-4.75-2.88,0,0,.56-1.09,3.18-0.94,2.16,0.12,3,1.23,3.19,2.24a8.79,8.79,0,0,1-.26,4.18" transform="translate(-754.67 -577.66)"/><path class="cls-1" d="M1175.1,954.38a3.59,3.59,0,0,0,.26,2.2c0.53,0.77,3.27,1.12,4.75,2.88,0,0-.56,1.09-3.19.94-2.16-.12-3-1.23-3.19-2.24A8.79,8.79,0,0,1,1174,954" transform="translate(-754.67 -577.66)"/><path class="cls-1" d="M1180,955.92a3.56,3.56,0,0,0-.26-2.2c-0.53-.77-3.27-1.12-4.75-2.87,0,0,.56-1.09,3.18-0.95,2.16,0.12,3,1.23,3.19,2.24a8.78,8.78,0,0,1-.25,4.18" transform="translate(-754.67 -577.66)"/><path class="cls-1" d="M1174,948.81a3.57,3.57,0,0,0,.26,2.2c0.53,0.77,3.27,1.12,4.76,2.87,0,0-.56,1.09-3.19.94-2.16-.12-3-1.22-3.19-2.23a8.77,8.77,0,0,1,.25-4.17" transform="translate(-754.67 -577.66)"/><path class="cls-1" d="M1179,950.35a3.58,3.58,0,0,0-.26-2.21c-0.53-.77-3.28-1.12-4.76-2.86,0,0,.55-1.09,3.18-1,2.16,0.12,3,1.22,3.2,2.23a8.78,8.78,0,0,1-.25,4.18" transform="translate(-754.67 -577.66)"/><path class="cls-1" d="M1173,943.25a3.57,3.57,0,0,0,.27,2.19c0.53,0.77,3.28,1.11,4.76,2.86,0,0-.56,1.09-3.18.94-2.16-.12-3-1.22-3.19-2.22a8.79,8.79,0,0,1,.24-4.17" transform="translate(-754.67 -577.66)"/><path class="cls-1" d="M1177.9,944.78a3.57,3.57,0,0,0-.26-2.2c-0.53-.77-3.28-1.11-4.77-2.85,0,0,.55-1.09,3.18-1,2.16,0.11,3,1.21,3.2,2.22a8.77,8.77,0,0,1-.24,4.19" transform="translate(-754.67 -577.66)"/><path class="cls-1" d="M1171.9,937.69a3.58,3.58,0,0,0,.27,2.2c0.53,0.77,3.28,1.1,4.77,2.85,0,0-.55,1.09-3.18,1-2.16-.11-3-1.21-3.2-2.22a8.82,8.82,0,0,1,.23-4.17" transform="translate(-754.67 -577.66)"/><path class="cls-1" d="M1176.82,939.2a3.57,3.57,0,0,0-.27-2.2c-0.53-.77-3.28-1.1-4.77-2.84,0,0,.55-1.09,3.17-1,2.16,0.11,3,1.21,3.21,2.21a8.79,8.79,0,0,1-.22,4.19" transform="translate(-754.67 -577.66)"/><path class="cls-1" d="M1170.8,932.13a3.58,3.58,0,0,0,.28,2.2c0.54,0.76,3.28,1.09,4.78,2.84,0,0-.55,1.09-3.18,1-2.16-.11-3-1.2-3.21-2.21a8.8,8.8,0,0,1,.22-4.17" transform="translate(-754.67 -577.66)"/><path class="cls-1" d="M1175.73,933.63a3.58,3.58,0,0,0-.28-2.21c-0.54-.76-3.29-1.09-4.79-2.82,0,0,.54-1.1,3.17-1,2.16,0.1,3,1.2,3.21,2.21a8.78,8.78,0,0,1-.21,4.19" transform="translate(-754.67 -577.66)"/><path class="cls-1" d="M1169.68,926.58a3.56,3.56,0,0,0,.29,2.19c0.54,0.77,3.28,1.08,4.79,2.82,0,0-.55,1.1-3.18,1-2.16-.1-3-1.19-3.21-2.19a8.81,8.81,0,0,1,.2-4.17" transform="translate(-754.67 -577.66)"/><path class="cls-1" d="M1174.62,928.06a3.58,3.58,0,0,0-.29-2.2c-0.54-.77-3.29-1.08-4.8-2.8,0,0,.54-1.1,3.17-1,2.16,0.09,3,1.18,3.22,2.19a8.79,8.79,0,0,1-.2,4.19" transform="translate(-754.67 -577.66)"/><path class="cls-1" d="M1168.54,921a3.58,3.58,0,0,0,.3,2.19c0.54,0.76,3.29,1.07,4.8,2.8,0,0-.54,1.1-3.17,1-2.16-.09-3-1.18-3.22-2.19a8.81,8.81,0,0,1,.19-4.17" transform="translate(-754.67 -577.66)"/><path class="cls-1" d="M1173.48,922.5a3.57,3.57,0,0,0-.29-2.2c-0.54-.76-3.29-1.07-4.81-2.78,0,0,.54-1.1,3.16-1,2.16,0.08,3,1.17,3.23,2.18a8.74,8.74,0,0,1-.18,4.19" transform="translate(-754.67 -577.66)"/><path class="cls-1" d="M1167.38,915.5a3.58,3.58,0,0,0,.31,2.19c0.54,0.76,3.29,1.05,4.81,2.78,0,0-.54,1.1-3.17,1-2.16-.08-3-1.17-3.23-2.17a8.81,8.81,0,0,1,.17-4.17" transform="translate(-754.67 -577.66)"/><path class="cls-1" d="M1172.33,916.94a3.57,3.57,0,0,0-.3-2.2c-0.54-.76-3.3-1.05-4.82-2.76,0,0,.53-1.1,3.16-1,2.16,0.07,3,1.15,3.25,2.16a8.84,8.84,0,0,1-.16,4.2" transform="translate(-754.67 -577.66)"/><path class="cls-1" d="M1166.19,910a3.59,3.59,0,0,0,.32,2.19c0.55,0.76,3.3,1,4.82,2.75,0,0-.54,1.1-3.16,1-2.16-.07-3-1.15-3.24-2.15a8.81,8.81,0,0,1,.14-4.17" transform="translate(-754.67 -577.66)"/><path class="cls-1" d="M1171.14,911.38a3.54,3.54,0,0,0-.31-2.2c-0.55-.76-3.3-1-4.84-2.73,0,0,.52-1.11,3.15-1,2.16,0.05,3,1.14,3.26,2.15a8.74,8.74,0,0,1-.14,4.2" transform="translate(-754.67 -577.66)"/><path class="cls-1" d="M1165,904.44a3.57,3.57,0,0,0,.33,2.19c0.55,0.75,3.3,1,4.84,2.73,0,0-.53,1.11-3.16,1-2.16-.06-3-1.14-3.25-2.13a8.77,8.77,0,0,1,.12-4.17" transform="translate(-754.67 -577.66)"/><path class="cls-1" d="M1169.93,905.83a3.59,3.59,0,0,0-.33-2.2c-0.55-.76-3.31-1-4.86-2.7,0,0,.52-1.11,3.14-1.06,2.16,0,3,1.12,3.27,2.13a8.82,8.82,0,0,1-.11,4.2" transform="translate(-754.67 -577.66)"/><path class="cls-1" d="M1163.71,898.93a3.6,3.6,0,0,0,.34,2.18c0.55,0.75,3.32,1,4.86,2.7,0,0-.52,1.11-3.15,1.05-2.16-.05-3-1.12-3.26-2.11a8.84,8.84,0,0,1,.09-4.17" transform="translate(-754.67 -577.66)"/><path class="cls-1" d="M1168.68,900.28a3.55,3.55,0,0,0-.34-2.2c-0.56-.75-3.31-1-4.87-2.66,0,0,.51-1.11,3.13-1.09,2.16,0,3.06,1.09,3.29,2.1a8.75,8.75,0,0,1-.08,4.2" transform="translate(-754.67 -577.66)"/><path class="cls-1" d="M1162.41,893.43a3.56,3.56,0,0,0,.36,2.18c0.56,0.74,3.32,1,4.88,2.66,0,0-.51,1.11-3.14,1.07-2.16,0-3-1.09-3.28-2.09a8.77,8.77,0,0,1,.06-4.16" transform="translate(-754.67 -577.66)"/><path class="cls-1" d="M1167.39,894.74a3.58,3.58,0,0,0-.36-2.19c-0.57-.75-3.33-1-4.89-2.62,0,0,.5-1.12,3.13-1.12,2.16,0,3.06,1.07,3.3,2.08a8.77,8.77,0,0,1,0,4.21" transform="translate(-754.67 -577.66)"/><path class="cls-1" d="M1161.06,887.94a3.58,3.58,0,0,0,.38,2.17c0.57,0.74,3.33.94,4.9,2.62,0,0-.51,1.12-3.14,1.1-2.16,0-3.05-1.07-3.3-2.06a8.86,8.86,0,0,1,0-4.16" transform="translate(-754.67 -577.66)"/><path class="cls-1" d="M1166.06,889.21a3.6,3.6,0,0,0-.38-2.19c-0.57-.74-3.33-0.93-4.92-2.58,0,0,.49-1.12,3.11-1.15,2.16,0,3.08,1,3.33,2a8.78,8.78,0,0,1,0,4.21" transform="translate(-754.67 -577.66)"/><path class="cls-1" d="M1159.66,882.47a3.59,3.59,0,0,0,.4,2.17c0.58,0.73,3.34.91,4.92,2.57,0,0-.49,1.12-3.12,1.12-2.17,0-3.06-1-3.31-2a8.85,8.85,0,0,1,0-4.16" transform="translate(-754.67 -577.66)"/><path class="cls-1" d="M1164.67,883.69a3.56,3.56,0,0,0-.4-2.19c-0.59-.74-3.34-0.9-4.95-2.53,0,0,.47-1.13,3.1-1.18,2.16,0,3.09,1,3.35,2a8.73,8.73,0,0,1,0,4.21" transform="translate(-754.67 -577.66)"/><path class="cls-1" d="M1158.21,877a3.55,3.55,0,0,0,.42,2.16c0.59,0.72,3.34.87,4.95,2.52,0,0-.48,1.13-3.11,1.15-2.16,0-3.07-1-3.33-2a8.76,8.76,0,0,1-.06-4.15" transform="translate(-754.67 -577.66)"/><path class="cls-1" d="M1163.23,878.18a3.6,3.6,0,0,0-.43-2.19c-0.59-.73-3.36-0.86-5-2.47,0,0,.46-1.13,3.09-1.22,2.16-.07,3.09,1,3.37,2a8.8,8.8,0,0,1,.09,4.22" transform="translate(-754.67 -577.66)"/><path class="cls-1" d="M1156.68,871.59a3.57,3.57,0,0,0,.46,2.16c0.59,0.72,3.36.83,5,2.46,0,0-.47,1.13-3.1,1.19-2.16,0-3.08-1-3.36-1.95a8.83,8.83,0,0,1-.11-4.15" transform="translate(-754.67 -577.66)"/><path class="cls-1" d="M1161.72,872.68a3.58,3.58,0,0,0-.46-2.18c-0.6-.72-3.36-0.82-5-2.4,0,0,.45-1.14,3.07-1.27,2.16-.1,3.11.93,3.4,1.93a8.76,8.76,0,0,1,.14,4.22" transform="translate(-754.67 -577.66)"/><path class="cls-1" d="M1155.08,866.18a3.61,3.61,0,0,0,.48,2.15c0.6,0.71,3.38.78,5,2.39,0,0-.46,1.14-3.09,1.23-2.16.08-3.09-.93-3.38-1.9a8.87,8.87,0,0,1-.17-4.14" transform="translate(-754.67 -577.66)"/><path class="cls-1" d="M1160.13,867.21a3.54,3.54,0,0,0-.49-2.18c-0.62-.71-3.37-0.77-5.05-2.32,0,0,.42-1.15,3-1.32,2.15-.14,3.13.88,3.43,1.88a8.67,8.67,0,0,1,.2,4.22" transform="translate(-754.67 -577.66)"/><path class="cls-1" d="M1153.39,860.81a3.56,3.56,0,0,0,.52,2.14c0.62,0.69,3.38.72,5.05,2.31,0,0-.44,1.14-3.07,1.28-2.16.11-3.11-.87-3.41-1.84a8.82,8.82,0,0,1-.25-4.13" transform="translate(-754.67 -577.66)"/><path class="cls-1" d="M1158.46,861.75a3.58,3.58,0,0,0-.53-2.17c-0.63-.7-3.39-0.71-5.1-2.22,0,0,.4-1.15,3-1.38,2.16-.18,3.15.82,3.47,1.81a8.7,8.7,0,0,1,.28,4.23" transform="translate(-754.67 -577.66)"/><path class="cls-1" d="M1151.6,855.49a3.53,3.53,0,0,0,.56,2.12c0.63,0.68,3.39.65,5.09,2.21,0,0-.42,1.15-3,1.33-2.16.15-3.13-.82-3.45-1.78a8.84,8.84,0,0,1-.32-4.12" transform="translate(-754.67 -577.66)"/><path class="cls-1" d="M1156.69,856.32a3.63,3.63,0,0,0-.57-2.16c-0.65-.69-3.41-0.64-5.14-2.11,0,0,.37-1.16,3-1.45,2.15-.23,3.16.75,3.51,1.74a8.77,8.77,0,0,1,.38,4.23" transform="translate(-754.67 -577.66)"/><path class="cls-1" d="M1149.69,850.21a3.52,3.52,0,0,0,.61,2.1c0.65,0.66,3.4.57,5.14,2.1,0,0-.4,1.16-3,1.4-2.15.19-3.14-.74-3.48-1.7a8.84,8.84,0,0,1-.42-4.1" transform="translate(-754.67 -577.66)"/><path class="cls-1" d="M1154.8,850.91a3.64,3.64,0,0,0-.63-2.15c-0.66-.68-3.42-0.55-5.2-2,0,0,.34-1.17,2.94-1.53,2.15-.29,3.19.67,3.56,1.65a8.76,8.76,0,0,1,.48,4.23" transform="translate(-754.67 -577.66)"/><path class="cls-1" d="M1147.64,845a3.49,3.49,0,0,0,.67,2.08c0.67,0.64,3.41.47,5.19,2,0,0-.37,1.17-3,1.47-2.14.25-3.16-.66-3.52-1.6a8.9,8.9,0,0,1-.53-4.07" transform="translate(-754.67 -577.66)"/><path class="cls-1" d="M1152.76,845.55a3.67,3.67,0,0,0-.69-2.14c-0.69-.65-3.44-0.45-5.26-1.8,0,0,.3-1.18,2.88-1.64,2.14-.37,3.22.56,3.62,1.54a8.7,8.7,0,0,1,.61,4.23" transform="translate(-754.67 -577.66)"/><path class="cls-1" d="M1145.42,839.88a3.5,3.5,0,0,0,.74,2c0.69,0.62,3.43.35,5.26,1.79,0,0-.33,1.19-2.93,1.56-2.13.31-3.18-.55-3.56-1.47a8.91,8.91,0,0,1-.67-4" transform="translate(-754.67 -577.66)"/><path class="cls-1" d="M1150.56,840.24a3.62,3.62,0,0,0-.77-2.12c-0.72-.63-3.44-0.33-5.33-1.58,0,0,.25-1.2,2.81-1.76,2.11-.46,3.25.43,3.69,1.39a8.72,8.72,0,0,1,.78,4.22" transform="translate(-754.67 -577.66)"/><path class="cls-1" d="M1143,834.88a3.59,3.59,0,0,0,.84,2c0.71,0.58,3.45.19,5.33,1.56,0,0-.29,1.2-2.87,1.67-2.13.39-3.19-.43-3.61-1.32a8.9,8.9,0,0,1-.85-4" transform="translate(-754.67 -577.66)"/><path class="cls-1" d="M1148.13,835a3.53,3.53,0,0,0-.87-2.09c-0.74-.61-3.47-0.16-5.4-1.31,0,0,.17-1.2,2.7-1.92,2.08-.58,3.26.26,3.77,1.21a8.64,8.64,0,0,1,1,4.21" transform="translate(-754.67 -577.66)"/><path class="cls-1" d="M1140.29,830.05a3.44,3.44,0,0,0,1,1.93c0.72,0.54,3.46,0,5.39,1.28,0,0-.22,1.21-2.79,1.81-2.11.5-3.19-.27-3.67-1.12a9,9,0,0,1-1.05-3.86" transform="translate(-754.67 -577.66)"/><path class="cls-1" d="M1145.44,829.87a3.9,3.9,0,0,0-.21-0.81,2.69,2.69,0,0,0-.8-1.24c-0.78-.56-3.47,0-5.49-0.91,0,0,.08-1.22,2.54-2.14,2-.75,3.3,0,3.87,1a8.45,8.45,0,0,1,1.27,4.19" transform="translate(-754.67 -577.66)"/><path class="cls-1" d="M1137.27,825.51a3.55,3.55,0,0,0,1.09,1.82c0.77,0.46,3.43-.29,5.47.89,0,0-.15,1.23-2.67,2-2.06.62-3.2,0-3.71-.84a8.92,8.92,0,0,1-1.33-3.7" transform="translate(-754.67 -577.66)"/><path class="cls-1" d="M1142.39,824.89a3.56,3.56,0,0,0-1.19-2c-0.83-.5-3.47.35-5.55-0.37a1.53,1.53,0,0,1,.27-0.75,4.75,4.75,0,0,1,2-1.66c2-1,3.3-.3,4,0.59a8.39,8.39,0,0,1,1.15,2.06,14.11,14.11,0,0,1,.51,2.07" transform="translate(-754.67 -577.66)"/><path class="cls-1" d="M1133.84,821.38a4.32,4.32,0,0,0,.35.68,2.35,2.35,0,0,0,.93,1,6.84,6.84,0,0,0,2.25-.08,6.26,6.26,0,0,1,3.27.41,1.45,1.45,0,0,1-.32.74,4.82,4.82,0,0,1-2.16,1.46c-2,.81-3.16.27-3.75-0.44a9.06,9.06,0,0,1-1.67-3.42" transform="translate(-754.67 -577.66)"/><path class="cls-1" d="M1138.84,820.15a5.24,5.24,0,0,0-.38-0.77,2.52,2.52,0,0,0-1.07-1.08c-0.91-.4-3.41.77-5.55,0.44A1.56,1.56,0,0,1,1132,818a4.71,4.71,0,0,1,1.69-2,3.55,3.55,0,0,1,2.4-.79,2.93,2.93,0,0,1,1.7.81,8.41,8.41,0,0,1,2.25,4" transform="translate(-754.67 -577.66)"/><path class="cls-1" d="M1129.91,818a4.27,4.27,0,0,0,.44.6,2.48,2.48,0,0,0,1.05.75,7.38,7.38,0,0,0,2.19-.46,5.92,5.92,0,0,1,3.3,0,1.41,1.41,0,0,1-.22.78,4.85,4.85,0,0,1-2,1.72c-1.88,1.06-3.06.72-3.71,0.14a9.26,9.26,0,0,1-2.09-2.93" transform="translate(-754.67 -577.66)"/><path class="cls-1" d="M1134.59,815.85a5.56,5.56,0,0,0-.52-0.72,2.79,2.79,0,0,0-1.29-.89c-1-.24-3.25,1.41-5.3,1.66a1.68,1.68,0,0,1-.05-0.78,4.67,4.67,0,0,1,1.07-2.38,3.77,3.77,0,0,1,1.1-1,2.87,2.87,0,0,1,1.1-.37,2.83,2.83,0,0,1,1.93.45,8.09,8.09,0,0,1,3.13,3.63" transform="translate(-754.67 -577.66)"/><path class="cls-1" d="M1125.45,815.73a5,5,0,0,0,.68.45,1.63,1.63,0,0,0,1.07.39c0.78,0,2.75-2,5.19-1.72a1.42,1.42,0,0,1-.06.82,4.86,4.86,0,0,1-1.6,2.06c-1.64,1.39-2.78,1.37-3.48,1a5.13,5.13,0,0,1-.76-0.49,2.94,2.94,0,0,1-.51-0.45c-0.08-.09-0.14-0.18-0.25-0.27l-0.39-.31c-0.26-.21-0.51-0.44-0.78-0.68" transform="translate(-754.67 -577.66)"/><path class="cls-1" d="M1213.17,1163.34a3.64,3.64,0,0,0,0-2.25c-0.44-.85-3.12-1.57-4.39-3.45,0,0,.68-1,3.27-0.58,2.13,0.36,2.84,1.6,2.91,2.65a9,9,0,0,1-.73,4.2" transform="translate(-754.67 -577.66)"/><path class="cls-1" d="M1208.06,1155.54a7.08,7.08,0,0,0-.15.79,2.45,2.45,0,0,0,.16,1.39c0.43,0.81,3.12,1.47,4.39,3.43,0,0-.68,1-3.28.5-2.13-.42-2.84-1.58-2.91-2.58a9.34,9.34,0,0,1,.71-4" transform="translate(-754.67 -577.66)"/><path class="cls-1" d="M1212.76,1157.6a3.64,3.64,0,0,0,0-2.25c-0.47-.82-3.19-1.44-4.53-3.31,0,0,.64-1,3.25-0.64,2.15,0.32,2.9,1.51,3,2.54a8.27,8.27,0,0,1-.68,4.2" transform="translate(-754.67 -577.66)"/><path class="cls-1" d="M1207.42,1149.92a3.54,3.54,0,0,0,.09,2.2c0.47,0.81,3.19,1.42,4.54,3.31,0,0-.68,1-3.27.62-2.12-.33-2.9-1.5-3-2.52a8.62,8.62,0,0,1,.57-4.11" transform="translate(-754.67 -577.66)"/><path class="cls-1" d="M1212.22,1151.91a3.56,3.56,0,0,0-.09-2.22c-0.47-.82-3.19-1.42-4.53-3.28,0,0,.64-1,3.25-0.66,2.14,0.31,2.9,1.49,3,2.51a8.77,8.77,0,0,1-.56,4.15" transform="translate(-754.67 -577.66)"/><path class="cls-1" d="M1206.8,1144.31a3.55,3.55,0,0,0,.09,2.2c0.47,0.81,3.18,1.4,4.53,3.27,0,0-.64,1-3.25.65-2.15-.32-2.9-1.48-3-2.5a8.67,8.67,0,0,1,.57-4.11" transform="translate(-754.67 -577.66)"/><path class="cls-1" d="M1211.59,1146.26a3.58,3.58,0,0,0-.09-2.22c-0.47-.82-3.18-1.39-4.53-3.24,0,0,.64-1,3.24-0.69,2.14,0.29,2.9,1.46,3,2.49a8.81,8.81,0,0,1-.56,4.16" transform="translate(-754.67 -577.66)"/><path class="cls-1" d="M1206.17,1138.69a3.55,3.55,0,0,0,.09,2.21c0.47,0.81,3.18,1.37,4.53,3.24,0,0-.64,1-3.25.67-2.15-.3-2.9-1.46-3-2.47a8.72,8.72,0,0,1,.57-4.12" transform="translate(-754.67 -577.66)"/><path class="cls-1" d="M1211,1140.61a3.58,3.58,0,0,0-.09-2.22c-0.47-.81-3.18-1.37-4.52-3.21,0,0,.64-1,3.24-0.72,2.14,0.27,2.9,1.44,3,2.47a8.89,8.89,0,0,1-.56,4.17" transform="translate(-754.67 -577.66)"/><path class="cls-1" d="M1205.53,1133.08a3.57,3.57,0,0,0,.09,2.21c0.47,0.8,3.18,1.34,4.53,3.21,0,0-.64,1-3.25.7-2.14-.28-2.9-1.44-3-2.45a8.78,8.78,0,0,1,.57-4.13" transform="translate(-754.67 -577.66)"/><path class="cls-1" d="M1210.32,1135a3.59,3.59,0,0,0-.09-2.22c-0.47-.81-3.18-1.34-4.52-3.17,0,0,.64-1.06,3.24-0.75,2.14,0.25,2.89,1.42,3,2.45a8.91,8.91,0,0,1-.56,4.18" transform="translate(-754.67 -577.66)"/><path class="cls-1" d="M1204.9,1127.46a6.32,6.32,0,0,0-.12.8,2.52,2.52,0,0,0,.22,1.4c0.47,0.8,3.17,1.32,4.52,3.17,0,0-.64,1.05-3.24.73-2.14-.26-2.89-1.41-3-2.43a9.42,9.42,0,0,1,.54-4.14" transform="translate(-754.67 -577.66)"/><path class="cls-1" d="M1209.68,1129.3a3.62,3.62,0,0,0-.09-2.23c-0.5-.8-3.24-1.31-4.65-3.12,0,0,.6-1.06,3.22-0.77,2.16,0.24,3,1.39,3.11,2.41a8.19,8.19,0,0,1-.52,4.18" transform="translate(-754.67 -577.66)"/><path class="cls-1" d="M1204.06,1121.86a3.56,3.56,0,0,0,.17,2.2c0.5,0.8,3.23,1.29,4.65,3.13,0,0-.64,1.06-3.24.75-2.13-.25-2.95-1.39-3.09-2.4a8.64,8.64,0,0,1,.42-4.14" transform="translate(-754.67 -577.66)"/><path class="cls-1" d="M1208.92,1123.67a3.56,3.56,0,0,0-.17-2.21c-0.5-.8-3.23-1.29-4.64-3.1,0,0,.6-1.06,3.22-0.78,2.16,0.23,3,1.38,3.11,2.4a8.75,8.75,0,0,1-.42,4.16" transform="translate(-754.67 -577.66)"/><path class="cls-1" d="M1203.23,1116.26a3.57,3.57,0,0,0,.17,2.2c0.5,0.79,3.23,1.28,4.65,3.1,0,0-.6,1.06-3.23.77-2.16-.23-3-1.37-3.1-2.38a8.72,8.72,0,0,1,.42-4.14" transform="translate(-754.67 -577.66)"/><path class="cls-1" d="M1208.09,1118a3.57,3.57,0,0,0-.17-2.21c-0.5-.8-3.23-1.28-4.64-3.08,0,0,.6-1.06,3.22-0.8,2.15,0.22,3,1.36,3.1,2.38a8.78,8.78,0,0,1-.41,4.17" transform="translate(-754.67 -577.66)"/><path class="cls-1" d="M1202.39,1110.67a3.58,3.58,0,0,0,.17,2.2c0.5,0.79,3.23,1.26,4.64,3.08,0,0-.6,1.06-3.22.79-2.16-.22-3-1.36-3.1-2.37a8.69,8.69,0,0,1,.42-4.15" transform="translate(-754.67 -577.66)"/><path class="cls-1" d="M1207.25,1112.42a3.58,3.58,0,0,0-.17-2.21c-0.5-.79-3.23-1.26-4.64-3.06,0,0,.6-1.07,3.22-0.82,2.15,0.21,2.95,1.35,3.1,2.37a8.81,8.81,0,0,1-.41,4.18" transform="translate(-754.67 -577.66)"/><path class="cls-1" d="M1201.56,1105.07a3.58,3.58,0,0,0,.17,2.21c0.5,0.79,3.23,1.25,4.64,3.06,0,0-.6,1.06-3.22.8-2.16-.21-2.95-1.35-3.1-2.36a8.77,8.77,0,0,1,.42-4.15" transform="translate(-754.67 -577.66)"/><path class="cls-1" d="M1206.41,1106.81a3.57,3.57,0,0,0-.17-2.21c-0.5-.79-3.23-1.25-4.64-3,0,0,.6-1.07,3.21-0.83,2.15,0.2,2.95,1.33,3.1,2.36a8.85,8.85,0,0,1-.41,4.18" transform="translate(-754.67 -577.66)"/><path class="cls-1" d="M1200.73,1099.48a3.57,3.57,0,0,0,.17,2.21c0.5,0.79,3.22,1.23,4.64,3,0,0-.6,1.07-3.22.82-2.15-.2-2.95-1.33-3.1-2.35a8.79,8.79,0,0,1,.42-4.16" transform="translate(-754.67 -577.66)"/><path class="cls-1" d="M1205.57,1101.19a3.57,3.57,0,0,0-.17-2.21c-0.5-.79-3.22-1.23-4.63-3,0,0,.6-1.07,3.21-0.85,2.15,0.19,2.95,1.32,3.1,2.34a8.9,8.9,0,0,1-.41,4.18" transform="translate(-754.67 -577.66)"/><path class="cls-1" d="M1199.89,1093.88a3.6,3.6,0,0,0,.17,2.21c0.5,0.79,3.22,1.22,4.64,3,0,0-.6,1.07-3.22.84-2.15-.19-2.95-1.32-3.1-2.33a8.8,8.8,0,0,1,.42-4.16" transform="translate(-754.67 -577.66)"/><path class="cls-1" d="M1204.74,1095.57a3.58,3.58,0,0,0-.17-2.22c-0.5-.79-3.22-1.22-4.63-3,0,0,.6-1.08,3.21-0.86,2.15,0.18,2.94,1.31,3.09,2.33a8.9,8.9,0,0,1-.41,4.19" transform="translate(-754.67 -577.66)"/><path class="cls-1" d="M1199.06,1088.28a3.6,3.6,0,0,0,.17,2.21c0.5,0.78,3.22,1.2,4.63,3,0,0-.6,1.08-3.21.85-2.15-.18-2.94-1.31-3.09-2.32a8.85,8.85,0,0,1,.41-4.17" transform="translate(-754.67 -577.66)"/><path class="cls-1" d="M1203.9,1089.95a3.6,3.6,0,0,0-.17-2.22c-0.5-.79-3.22-1.2-4.63-3,0,0,.6-1.08,3.21-0.88,2.14,0.17,2.94,1.29,3.09,2.32a8.93,8.93,0,0,1-.41,4.19" transform="translate(-754.67 -577.66)"/><path class="cls-1" d="M1198.22,1082.68a3.59,3.59,0,0,0,.17,2.21c0.5,0.78,3.22,1.19,4.63,3,0,0-.6,1.08-3.21.87-2.15-.17-2.94-1.29-3.09-2.31a8.87,8.87,0,0,1,.41-4.17" transform="translate(-754.67 -577.66)"/><path class="cls-1" d="M1203.06,1084.33a3.6,3.6,0,0,0-.17-2.22c-0.5-.79-3.22-1.19-4.62-3,0,0,.6-1.08,3.2-0.9,2.14,0.16,2.94,1.28,3.09,2.3a9,9,0,0,1-.41,4.2" transform="translate(-754.67 -577.66)"/><path class="cls-1" d="M1197.39,1077.09a3.59,3.59,0,0,0,.17,2.21c0.5,0.78,3.21,1.17,4.63,3,0,0-.6,1.08-3.21.89-2.15-.16-2.94-1.28-3.09-2.29a8.92,8.92,0,0,1,.41-4.18" transform="translate(-754.67 -577.66)"/><path class="cls-1" d="M1202.22,1078.71a3.6,3.6,0,0,0-.17-2.22c-0.51-.78-3.19-1.18-4.67-2.94,0,0,.57-1.08,3.19-0.91,2.15,0.15,3,1.25,3.14,2.28a9,9,0,0,1-.41,4.2" transform="translate(-754.67 -577.66)"/><path class="cls-1" d="M1196.45,1071.5a3.58,3.58,0,0,0,.24,2.2c0.53,0.78,3.27,1.15,4.67,2.93,0,0-.6,1.09-3.21.9-2.15-.15-2.93-1.27-3.1-2.28a8.77,8.77,0,0,1,.29-4.17" transform="translate(-754.67 -577.66)"/><path class="cls-1" d="M1201.35,1073.1a3.57,3.57,0,0,0-.23-2.2c-0.52-.78-3.26-1.16-4.73-2.92,0,0,.57-1.08,3.19-0.91,2.16,0.15,3,1.26,3.17,2.27a8.77,8.77,0,0,1-.29,4.17" transform="translate(-754.67 -577.66)"/><path class="cls-1" d="M1195.45,1065.92a3.58,3.58,0,0,0,.24,2.2c0.52,0.78,3.26,1.16,4.73,2.92,0,0-.57,1.08-3.19.91-2.16-.14-3-1.26-3.17-2.27a8.79,8.79,0,0,1,.29-4.17" transform="translate(-754.67 -577.66)"/><path class="cls-1" d="M1200.35,1067.52a3.57,3.57,0,0,0-.23-2.2c-0.52-.78-3.26-1.16-4.73-2.92,0,0,.57-1.08,3.19-0.91,2.16,0.15,3,1.26,3.17,2.27a8.77,8.77,0,0,1-.29,4.17" transform="translate(-754.67 -577.66)"/><path class="cls-1" d="M1194.44,1060.34a3.59,3.59,0,0,0,.24,2.2c0.52,0.78,3.26,1.16,4.73,2.92,0,0-.57,1.08-3.19.91-2.16-.15-3-1.26-3.17-2.27a8.8,8.8,0,0,1,.29-4.17" transform="translate(-754.67 -577.66)"/><path class="cls-1" d="M1199.35,1061.94a3.57,3.57,0,0,0-.23-2.2c-0.52-.78-3.26-1.16-4.73-2.92,0,0,.57-1.08,3.19-0.91,2.16,0.15,3,1.26,3.17,2.27a8.79,8.79,0,0,1-.29,4.17" transform="translate(-754.67 -577.66)"/><path class="cls-1" d="M1193.44,1054.75a3.58,3.58,0,0,0,.24,2.2c0.52,0.78,3.26,1.16,4.73,2.92,0,0-.57,1.08-3.2.91-2.16-.15-3-1.26-3.17-2.27a8.77,8.77,0,0,1,.29-4.17" transform="translate(-754.67 -577.66)"/><path class="cls-1" d="M1198.34,1056.35a3.55,3.55,0,0,0-.23-2.2c-0.52-.78-3.26-1.16-4.73-2.92,0,0,.57-1.08,3.19-0.91,2.16,0.15,3,1.26,3.17,2.27a8.79,8.79,0,0,1-.29,4.17" transform="translate(-754.67 -577.66)"/><path class="cls-1" d="M1192.44,1049.17a3.58,3.58,0,0,0,.24,2.2c0.52,0.78,3.26,1.16,4.73,2.92,0,0-.57,1.08-3.2.91-2.16-.14-3-1.26-3.17-2.27a8.77,8.77,0,0,1,.29-4.17" transform="translate(-754.67 -577.66)"/><path class="cls-1" d="M1197.34,1050.77a3.57,3.57,0,0,0-.23-2.2c-0.52-.78-3.26-1.16-4.73-2.92,0,0,.57-1.08,3.19-0.91,2.16,0.15,3,1.26,3.17,2.27a8.77,8.77,0,0,1-.29,4.17" transform="translate(-754.67 -577.66)"/><path class="cls-1" d="M1191.44,1043.59a3.58,3.58,0,0,0,.24,2.2c0.52,0.78,3.26,1.16,4.73,2.92,0,0-.57,1.08-3.19.91-2.16-.14-3-1.26-3.17-2.27a8.8,8.8,0,0,1,.29-4.17" transform="translate(-754.67 -577.66)"/><path class="cls-1" d="M1196.34,1045.19a3.57,3.57,0,0,0-.23-2.2c-0.52-.78-3.26-1.16-4.73-2.92,0,0,.57-1.08,3.19-0.91,2.16,0.15,3,1.26,3.17,2.27a8.77,8.77,0,0,1-.29,4.17" transform="translate(-754.67 -577.66)"/><path class="cls-1" d="M1190.44,1038a3.59,3.59,0,0,0,.24,2.2c0.52,0.78,3.26,1.16,4.73,2.92,0,0-.57,1.08-3.2.91-2.16-.14-3-1.26-3.17-2.27a8.79,8.79,0,0,1,.29-4.17" transform="translate(-754.67 -577.66)"/><path class="cls-1" d="M1195.34,1039.61a3.58,3.58,0,0,0-.23-2.21c-0.52-.77-3.26-1.16-4.73-2.92,0,0,.57-1.08,3.19-0.91,2.16,0.15,3,1.26,3.17,2.27a8.77,8.77,0,0,1-.29,4.17" transform="translate(-754.67 -577.66)"/><path class="cls-1" d="M1189.44,1032.43a3.59,3.59,0,0,0,.24,2.2c0.52,0.78,3.26,1.16,4.73,2.93,0,0-.57,1.08-3.2.9-2.16-.14-3-1.26-3.17-2.26a8.79,8.79,0,0,1,.29-4.17" transform="translate(-754.67 -577.66)"/><path class="cls-1" d="M1194.34,1034a3.57,3.57,0,0,0-.23-2.2c-0.52-.78-3.26-1.16-4.73-2.92,0,0,.57-1.08,3.19-0.91,2.16,0.15,3,1.26,3.17,2.27a8.8,8.8,0,0,1-.29,4.17" transform="translate(-754.67 -577.66)"/><path class="cls-1" d="M1188.44,1026.85a3.58,3.58,0,0,0,.24,2.2c0.52,0.78,3.26,1.16,4.73,2.92,0,0-.57,1.08-3.2.91-2.16-.15-3-1.26-3.17-2.27a8.77,8.77,0,0,1,.29-4.17" transform="translate(-754.67 -577.66)"/><path class="cls-1" d="M1193.34,1028.45a3.56,3.56,0,0,0-.24-2.2c-0.52-.78-3.26-1.16-4.73-2.92,0,0,.57-1.08,3.19-0.91,2.16,0.15,3,1.26,3.17,2.27a8.77,8.77,0,0,1-.29,4.17" transform="translate(-754.67 -577.66)"/><path class="cls-1" d="M1187.44,1021.27a3.59,3.59,0,0,0,.24,2.2c0.52,0.78,3.26,1.16,4.73,2.92,0,0-.57,1.08-3.2.91-2.16-.15-3-1.26-3.17-2.27a8.77,8.77,0,0,1,.29-4.17" transform="translate(-754.67 -577.66)"/><path class="cls-1" d="M1192.34,1022.87a3.56,3.56,0,0,0-.23-2.21c-0.52-.77-3.26-1.16-4.73-2.92,0,0,.57-1.08,3.19-0.91,2.16,0.15,3,1.26,3.17,2.27a8.77,8.77,0,0,1-.29,4.17" transform="translate(-754.67 -577.66)"/><path class="cls-1" d="M1186.44,1015.68a3.58,3.58,0,0,0,.24,2.2c0.52,0.78,3.26,1.16,4.73,2.92,0,0-.57,1.08-3.2.9-2.16-.14-3-1.26-3.17-2.27a8.77,8.77,0,0,1,.29-4.17" transform="translate(-754.67 -577.66)"/><path class="cls-1" d="M1191.34,1017.28a3.57,3.57,0,0,0-.23-2.2c-0.52-.78-3.26-1.16-4.73-2.92,0,0,.57-1.08,3.19-0.91,2.16,0.15,3,1.26,3.17,2.27a8.77,8.77,0,0,1-.29,4.17" transform="translate(-754.67 -577.66)"/><path class="cls-1" d="M1185.44,1010.1a3.59,3.59,0,0,0,.24,2.2c0.52,0.78,3.26,1.16,4.73,2.92,0,0-.57,1.08-3.19.91-2.16-.15-3-1.26-3.17-2.27a8.79,8.79,0,0,1,.29-4.17" transform="translate(-754.67 -577.66)"/><path class="cls-1" d="M1190.34,1011.7a3.57,3.57,0,0,0-.23-2.2c-0.52-.78-3.26-1.16-4.73-2.92,0,0,.57-1.08,3.19-0.91,2.16,0.15,3,1.26,3.17,2.27a8.79,8.79,0,0,1-.29,4.17" transform="translate(-754.67 -577.66)"/><path class="cls-1" d="M1184.44,1004.52a3.58,3.58,0,0,0,.24,2.2c0.52,0.78,3.26,1.16,4.73,2.92,0,0-.57,1.08-3.2.91-2.16-.15-3-1.26-3.17-2.27a8.77,8.77,0,0,1,.29-4.17" transform="translate(-754.67 -577.66)"/><path class="cls-1" d="M1189.34,1006.12a3.56,3.56,0,0,0-.24-2.2c-0.52-.78-3.26-1.16-4.73-2.92,0,0,.57-1.08,3.19-0.91,2.16,0.15,3,1.26,3.17,2.27a8.8,8.8,0,0,1-.29,4.17" transform="translate(-754.67 -577.66)"/><path class="cls-1" d="M1183.44,998.94a3.59,3.59,0,0,0,.24,2.2c0.52,0.78,3.26,1.16,4.73,2.92,0,0-.57,1.08-3.2.91-2.16-.15-3-1.26-3.17-2.27a8.77,8.77,0,0,1,.29-4.17" transform="translate(-754.67 -577.66)"/><path class="cls-1" d="M1188.34,1000.54a3.56,3.56,0,0,0-.24-2.21c-0.52-.78-3.26-1.16-4.73-2.92,0,0,.57-1.08,3.19-0.91,2.16,0.15,3,1.26,3.17,2.27a8.79,8.79,0,0,1-.29,4.17" transform="translate(-754.67 -577.66)"/><path class="cls-1" d="M1182.44,993.39l0,0.24c0,0.07,0,.16,0,0.26a1.46,1.46,0,0,0,0,.29,2.56,2.56,0,0,0,.31,1.39c0.52,0.78,3.26,1.16,4.73,2.92,0,0-.57,1.08-3.2.91-2.16-.15-3-1.26-3.17-2.27a7.71,7.71,0,0,1-.1-2.19,5.06,5.06,0,0,1,.16-0.92c0.06-.33.14-0.66,0.22-1" transform="translate(-754.67 -577.66)"/><path class="cls-1" d="M1187.34,995a4.86,4.86,0,0,0,.08-0.81,2.62,2.62,0,0,0-.32-1.42c-0.53-.77-3.28-1.11-4.76-2.86,0,0,.56-1.09,3.18-0.95,2.16,0.12,3,1.22,3.19,2.23a8.05,8.05,0,0,1,.14,1.16v0.33a0.2,0.2,0,0,0,0,.09v0.16q0,0.25,0,.5a13.87,13.87,0,0,1-.39,2" transform="translate(-754.67 -577.66)"/><path class="cls-1" d="M1181.38,987.82a3.6,3.6,0,0,0,.26,2.2c0.53,0.77,3.28,1.12,4.76,2.86a1.47,1.47,0,0,1-.61.54,4.81,4.81,0,0,1-2.58.39c-2.15-.08-3-1.21-3.19-2.21a8.78,8.78,0,0,1,.25-4.18" transform="translate(-754.67 -577.66)"/><path class="cls-1" d="M1186.29,989.36a3.56,3.56,0,0,0-.26-2.2c-0.53-.77-3.27-1.12-4.75-2.87,0,0,.56-1.09,3.18-0.94,2.16,0.12,3,1.23,3.19,2.24a8.79,8.79,0,0,1-.25,4.17" transform="translate(-754.67 -577.66)"/><path class="cls-1" d="M1180.33,982.24a3.59,3.59,0,0,0,.26,2.2c0.53,0.77,3.27,1.13,4.76,2.87,0,0-.56,1.09-3.18.94-2.16-.12-3-1.23-3.19-2.24a8.79,8.79,0,0,1,.26-4.18" transform="translate(-754.67 -577.66)"/><path class="cls-3" d="M1072.53,842.36s42.59,30.08,22,45.67c-19.52,14.82-122.17,48.62-124.41,48.62-4.6,0-137-62.33-137-62.33S969.81,889.6,975.94,889.6Z" transform="translate(-754.67 -577.66)"/><path class="cls-4" d="M1090.41,759.84s20.95,58.65-20.13,68.6c-38.62,9.36,59.41,11.47,59.41,11.47l22.69-19.16s9-83.54,8-126.62" transform="translate(-754.67 -577.66)"/><path class="cls-5" d="M1053.9,840.93c3.85,0.13,26.85,1.17,32.78-2.63,32.11-20.58,34.72-56.3,34.72-56.3l-25.58,4.07c0.89,11-4.3,37.42-33,44.87C1058.45,832.07,1054.64,839.84,1053.9,840.93Z" transform="translate(-754.67 -577.66)"/><path class="cls-2" d="M985.45,983.33c-3.47-37.06,7.86-49.67,23.05-77.93,20.41-38,49.62-79.53,54.95-78.71,71,10.91,87.87-14.56,92-5.09,16.85,38.24-5.05,79.73-57.76,165.26,0,0-49,1-51.51,20.89" transform="translate(-754.67 -577.66)"/><path class="cls-6" d="M1046.22,1007.76c2.49-19.91,51.51-20.89,51.51-20.89,52.71-85.53,74.61-127,57.76-165.26-4.17-9.47-21,16-92,5.09-5.33-.82-34.53,40.74-54.95,78.71-15.2,28.26-26.52,40.87-23.05,77.93" transform="translate(-754.67 -577.66)"/><path class="cls-1" d="M980.11,957.67c29.41,31.37,113.25,32.26,113.25,32.26s24.57,1.44-6.13,30.64c-30.06,28.59-114-12.08-114-12.08Z" transform="translate(-754.67 -577.66)"/><path class="cls-1" d="M1265.92,895.56c7-18.94,11.87-44.1,12.07-64.3,0.45-44.44-32.47-86.72-42.16-129.19-6.23-27.32-3-51-17.52-75.55-6.83-11.55-24.37-41.05-79.3-47.71-65.83-8-89.78,46.27-89.78,46.27s22.52-6.66,47.89,4.82,50.41,30.18,52.27,38.06c6.27,26.53,20.33,81.72,23.38,91.47,8,25.57,14.2,57.57,15.88,97.12,1,22.63-12.09,55.89-24.23,70.7-12.27,15-20,33-30.55,49.12-8.12,12.48-18.41,24.3-22.55,38.72a184.57,184.57,0,0,0-5.09,23c9.59,15.7,16,6.45,26.45,35.45,27.19,8.35,96,22,121.6-39.25,18.94-45.37,3.55-61,1.55-88.06C1254.49,928,1259.75,912.17,1265.92,895.56Z" transform="translate(-754.67 -577.66)"/><path class="cls-5" d="M1060.06,622.46c-1.49-.12-12.88,16-16.88,27.68-3.11,9.11-.54,30.27,2.68,44.33,0.92,4,3.42,6.51,4.41,8.89,3.13,7.54.62,14.33-.92,16.54-3.42,4.9-4,14.31-2.59,18.85,2.46,8.06,9.87,19.9,11.15,22.52s19.54,24.22,19.54,24.22,6.28,7.44,23.79,6.18c3.57-.26,40.79-21.47,44.55-28.55l8.1-29.18,6-13.22s12.38,0.4,19.46-14.89c5.48-11.84,9.32-37.38-7.46-32.91-3.49.93-12.15,7.6-12.15,7.6Z" transform="translate(-754.67 -577.66)"/><path class="cls-4" d="M1065.34,733.17c2.78-3.42,13.63-6.2,17.77-6.68a103,103,0,0,1,14.48-.48c0.58,4.88-1.24,9.51-3.53,13.71-2,3.6-4,6.73-7.92,8.21-3.6,1.36-8.54,1.82-12.13,3.19,4.11-2,7.17-13.79-4.75-17L1064.5,733" transform="translate(-754.67 -577.66)"/><path class="cls-5" d="M1075.72,752.9l0.17-6.32s11.56-3.47,19.76-10.4-9.52,11.75-9.52,11.75" transform="translate(-754.67 -577.66)"/><polyline class="cls-5" points="318.36 159.49 338.77 151.26 340.49 148.73 310.58 152.61"/><path class="cls-1" d="M1053.75,696.38l-0.28-.2c-0.18-.14-0.4-0.26-0.75-0.56a9.18,9.18,0,0,1-2-2.16,9,9,0,0,1-1.08-2.52,7.74,7.74,0,0,1-.16-0.86l-0.05-.32,0.16,0.28a7.16,7.16,0,0,0,.44.72,8.11,8.11,0,0,0,1.7,1.78,7.4,7.4,0,0,0,2,1.05c0.24,0.1.58,0.17,0.78,0.23l0.33,0.09A9.47,9.47,0,0,1,1053.75,696.38Z" transform="translate(-754.67 -577.66)"/><path class="cls-1" d="M1052.56,698.34l-0.33-.2c-0.21-.13-0.48-0.28-0.86-0.52a12.81,12.81,0,0,1-2.51-2,8.33,8.33,0,0,1-1.61-2.65c-0.26-.78-0.39-1.29-0.39-1.29s0.3,0.45.77,1.08a7.41,7.41,0,0,0,2.09,1.8,11.22,11.22,0,0,0,2.56.92l1.31,0.31A8.29,8.29,0,0,1,1052.56,698.34Z" transform="translate(-754.67 -577.66)"/><path class="cls-1" d="M1053.48,700.11l-0.4,0a6.43,6.43,0,0,1-1.15,0l-0.85-.08-0.83-.22a3.89,3.89,0,0,1-.85-0.3c-0.28-.13-0.56-0.23-0.83-0.39a7.75,7.75,0,0,1-2.44-2.13,5.08,5.08,0,0,1-.53-0.89l-0.18-.34,0.28,0.27a4.89,4.89,0,0,0,.74.66,6.89,6.89,0,0,0,2.62,1.16c0.25,0.06.51,0.06,0.75,0.1a2.71,2.71,0,0,0,.72,0l0.65,0,0.5-.12a4.35,4.35,0,0,0,.86-0.26l0.38-.14a9.51,9.51,0,0,1,.39,1.31A9.8,9.8,0,0,1,1053.48,700.11Z" transform="translate(-754.67 -577.66)"/><path class="cls-1" d="M1052.16,703.28s-0.51-.1-1.34-0.33a11,11,0,0,1-2.94-1.22,10.8,10.8,0,0,1-2.27-2l-0.84-1,1.11,0.7a9.94,9.94,0,0,0,2.54,1.07,9.3,9.3,0,0,0,2.62.18c0.73,0,1.31-.1,1.32-0.1A8.51,8.51,0,0,1,1052.16,703.28Z" transform="translate(-754.67 -577.66)"/><path class="cls-1" d="M1054.69,703.36l-0.42.25-0.67.33a8,8,0,0,1-.81.27,9.64,9.64,0,0,1-4.08.06,13,13,0,0,1-3.61-1.23,9.18,9.18,0,0,1-1.44-.9,9.07,9.07,0,0,0,1.58.5,12.19,12.19,0,0,0,3.54.27,7.77,7.77,0,0,0,3.18-.85,5.08,5.08,0,0,0,.45-0.3l0.25-.21,0.35-.34a8.14,8.14,0,0,1,.95,1A8,8,0,0,1,1054.69,703.36Z" transform="translate(-754.67 -577.66)"/><path class="cls-1" d="M1053.8,703.83l-0.22.25c-0.14.15-.31,0.36-0.62,0.66a11,11,0,0,1-2.17,1.7,10.68,10.68,0,0,1-2.4,1.05,6.79,6.79,0,0,1-.82.19l-0.31.06,0.27-.17a6.45,6.45,0,0,0,.67-0.46,9.8,9.8,0,0,0,1.7-1.7,9.27,9.27,0,0,0,1.16-2c0.12-.24.22-0.53,0.29-0.72l0.12-.31A9.84,9.84,0,0,1,1053.8,703.83Z" transform="translate(-754.67 -577.66)"/><path class="cls-1" d="M1059.31,697s-0.67-.31-1.7-0.89a14.06,14.06,0,0,1-3.45-2.62,8.87,8.87,0,0,1-2-3.73c-0.13-.55-0.15-1-0.21-1.33l-0.07-.5,0.18,0.47c0.13,0.29.26,0.73,0.49,1.21a8,8,0,0,0,2.47,2.86,12.34,12.34,0,0,0,3.42,1.52c0.46,0.16,1,.26,1.27.34l0.52,0.13A6.08,6.08,0,0,1,1059.31,697Z" transform="translate(-754.67 -577.66)"/><path class="cls-1" d="M1099.36,677.47l-0.5-.36-0.62-.48-0.71-.61a23.82,23.82,0,0,1-3.22-3.62,14.54,14.54,0,0,1-2.17-4.21,7,7,0,0,1-.28-1.51c0-.37,0-0.57,0-0.57l0.17,0.54a6.54,6.54,0,0,0,.64,1.32,13.51,13.51,0,0,0,3,3.2,21.7,21.7,0,0,0,3.65,2.35l0.71,0.33,0.51,0.21,0.55,0.21a11.49,11.49,0,0,1-.7,1.69A11.7,11.7,0,0,1,1099.36,677.47Z" transform="translate(-754.67 -577.66)"/><path class="cls-1" d="M1088.67,678.24l-0.28-.12c-0.19-.09-0.36-0.15-0.81-0.39a6.4,6.4,0,0,1-2.19-1.83,8.48,8.48,0,0,1-1.18-2.2c-0.22-.62-0.31-1-0.31-1s0.3,0.31.78,0.7a7.31,7.31,0,0,0,1.85,1.11,3.75,3.75,0,0,0,1.78.27l1-.09s-0.21,1.81-.21,1.81S1088.71,678.25,1088.67,678.24Z" transform="translate(-754.67 -577.66)"/><path class="cls-1" d="M1087.83,676.45l-0.68-.91a15.34,15.34,0,0,1-1.4-2.22,8.77,8.77,0,0,1-.75-2.45l-0.12-1.1,0.64,0.87a7.56,7.56,0,0,0,1.63,1.52,13.58,13.58,0,0,0,2,1l1,0.45s-1.07,1.47-1.07,1.47S1087.87,676.48,1087.83,676.45Z" transform="translate(-754.67 -577.66)"/><path class="cls-1" d="M1090.13,674.63l-0.23-.24c-0.14-.15-0.34-0.35-0.64-0.7a9.73,9.73,0,0,1-1.59-2.47,7.66,7.66,0,0,1-.65-2.69,5,5,0,0,1,0-.87l0-.32,0.13,0.3a4.63,4.63,0,0,0,.35.74,6.44,6.44,0,0,0,1.56,1.76,7.27,7.27,0,0,0,1.93,1.07l0.72,0.26,0.32,0.11s-0.9,1.58-.9,1.58S1090.17,674.66,1090.13,674.63Z" transform="translate(-754.67 -577.66)"/><path class="cls-1" d="M1093.59,674.29s-0.43-.4-1.06-1.1a11.05,11.05,0,0,1-1.94-2.79,8.71,8.71,0,0,1-.8-3.22c0-.88,0-1.47,0-1.47l0.24,1.43a8.07,8.07,0,0,0,1.3,2.79,9.88,9.88,0,0,0,2.18,2.12c0.32,0.25.63,0.46,0.85,0.61l0.35,0.24a4.23,4.23,0,0,1-.49.78A4.14,4.14,0,0,1,1093.59,674.29Z" transform="translate(-754.67 -577.66)"/><path class="cls-7" d="M1106.16,676.46s-8.84-7.57-15.5-4.53c-4.48,2-4.53,12.27-4.53,12.27s3.92-1.82,8.09-3.35Z" transform="translate(-754.67 -577.66)"/><path class="cls-8" d="M1094.9,672.82c-1.87-1.62-4-.87-5.88,2.73a12.15,12.15,0,0,0-.75,7.69c1.53-.66,3.7-1.58,6-2.4l0.35-.13C1095.78,678.06,1096.55,674.24,1094.9,672.82Z" transform="translate(-754.67 -577.66)"/><ellipse class="cls-1" cx="1091.51" cy="677.91" rx="2.15" ry="1.61" transform="translate(-636.11 939.5) rotate(-72.62)"/><path class="cls-7" d="M1106.16,676.46s-8.84-7.57-15.5-4.53c-4.48,2-4.53,12.27-4.53,12.27s3.92-1.82,8.09-3.35Z" transform="translate(-754.67 -577.66)"/><path class="cls-8" d="M1094.9,672.82c-1.87-1.62-4-.87-5.88,2.73a12.15,12.15,0,0,0-.75,7.69c1.53-.66,3.7-1.58,6-2.4l0.35-.13C1095.78,678.06,1096.55,674.24,1094.9,672.82Z" transform="translate(-754.67 -577.66)"/><ellipse class="cls-1" cx="1091.51" cy="677.91" rx="2.15" ry="1.61" transform="translate(-636.11 939.5) rotate(-72.62)"/><path class="cls-1" d="M1090.67,671.92a4.49,4.49,0,0,0-1.46,1.1,6,6,0,0,1,2.65-1c3.27-.4,7.6,1,10.55,2.78a19.11,19.11,0,0,1,2.85,2l0.91-.33S1097.32,668.88,1090.67,671.92Z" transform="translate(-754.67 -577.66)"/><path class="cls-1" d="M1106.16,676.46s-0.42-.36-1.16-0.9a23.79,23.79,0,0,1-4.38,2.92Z" transform="translate(-754.67 -577.66)"/><path class="cls-4" d="M1075.78,668.75c-2.28,1.12-7-4-5.14-6.09s23.27-7.66,27.25-7.89,22.6,7,22.6,7-18.28-4.34-23.75-3.41C1087.84,659.86,1078.73,667.3,1075.78,668.75Z" transform="translate(-754.67 -577.66)"/><path class="cls-4" d="M1051,677.13c1.71-.52,4.11,3,3.83,4.84-0.12.81-.48,1.31-2,2s-4.34,1.74-6.24,4.13c-1,1.29-.58,5.74,0,8.9,0,0-4.23-8.48-3.06-12.34S1049.58,677.57,1051,677.13Z" transform="translate(-754.67 -577.66)"/><path class="cls-9" d="M1076.78,713.5c1.12-1.25-1.32-2.37-4.33-2.63s-6.32,3.49-4.85,3.55c0.4,0,1.14-1.64,1.85-1.58S1075.32,715.14,1076.78,713.5Z" transform="translate(-754.67 -577.66)"/><path class="cls-9" d="M1061,718.1c-0.92.12-1,2.25-.25,3s2.95,1.06,3.3.48a2.25,2.25,0,0,0-.89-2.61A3.55,3.55,0,0,0,1061,718.1Z" transform="translate(-754.67 -577.66)"/><path class="cls-7" d="M1062.68,696.39l-0.24,2.84s-5.9,2-8.37,4.92L1051.6,707s-1.5-11.16,3-13S1062.68,696.39,1062.68,696.39Z" transform="translate(-754.67 -577.66)"/><path class="cls-8" d="M1057.65,694c-3.81-1.48-6.75,7.81-4.73,11.53l1.16-1.35a16.79,16.79,0,0,1,5.14-3.54C1060,697.77,1059.93,694.85,1057.65,694Z" transform="translate(-754.67 -577.66)"/><ellipse class="cls-1" cx="1055.59" cy="699.08" rx="2.03" ry="1.35" transform="translate(-606.05 1004.83) rotate(-77.76)"/><path class="cls-9" d="M1080,724.86c-6.89,1.42-12.91,4.12-15.19,6.75-1.85,2.14-2.61,2.91-.22,5.16,1.6,1.5.75,0.88,6.45-2.17,15.2-8.15,25-6.55,25-6.55,0-1.19-.47,3.38-3.09,8-5,8.82-15.33,12.3-20.65,13.38-1.86.38-2,.77-2.14,1a6,6,0,0,0,1.77,2.93,7.36,7.36,0,0,0,6.46,1.71c7.9-2.14,10-4.36,14.3-9.66,5.84-7.2,8.19-20,8.19-20l0.22-2.67C1098.64,723.41,1089,723,1080,724.86Z" transform="translate(-754.67 -577.66)"/><path class="cls-10" d="M1092.49,828.6s47,0,66-20c0,0,38.42,27,35,84-3,50-22.42,104.66-6.63,162.8,0,0-21.37,8.2-82.37,1.2-23.18-2.66-65.06-18.75-65.06-18.75Z" transform="translate(-754.67 -577.66)"/><path class="cls-3" d="M1124.79,846.48c0.93-1.35,2.14-3,3.7-4.88C1124.43,846.1,1124.67,845.88,1124.79,846.48Z" transform="translate(-754.67 -577.66)"/><path class="cls-3" d="M1124.79,846.48c-2.27,3.3-2.75,5-2,5.48C1124.89,847.91,1124.88,846.94,1124.79,846.48Z" transform="translate(-754.67 -577.66)"/><path class="cls-3" d="M1151,834.81c-1.87,2-25.25,19.29-28.22,17.14-1,1.84-2.37,4.31-4.43,7.67l-55.22,84.83h0l-16.28,64.19c49.81-37.49,119.82-94.16,119.82-94.16a261.36,261.36,0,0,0,20.9-40.48C1184.66,826.54,1151,834.81,1151,834.81Z" transform="translate(-754.67 -577.66)"/><path class="cls-1" d="M1046.52,1008a4,4,0,0,0-.36-2.33c-0.56-.79-3.32-1.07-4.9-2.93,0,0,.51-1.18,3.14-1.07,2.17,0.09,3.06,1.22,3.3,2.27a10.34,10.34,0,0,1,0,4.42" transform="translate(-754.67 -577.66)"/><path class="cls-1" d="M1040.19,1000.58a4.19,4.19,0,0,0,.38,2.37c0.57,0.82,3.34,1.14,4.91,2.94,0,0-.5,1.19-3.13,1.13-2.16,0-3.06-1.24-3.31-2.33a10.19,10.19,0,0,1,0-4.54" transform="translate(-754.67 -577.66)"/><path class="cls-1" d="M1045.2,1002.16a4,4,0,0,0-.36-2.32c-0.56-.81-3.36-1.15-4.91-3,0,0,.56-1.17,3.18-1,2.12,0.16,3,1.3,3.28,2.36a9.66,9.66,0,0,1-.06,4.39" transform="translate(-754.67 -577.66)"/><path class="cls-1" d="M1039,994.56a4.22,4.22,0,0,0,.24,2.39c0.54,0.84,3.35,1.23,4.92,3.06,0,0-.51,1.17-3.15,1-2.18-.11-3.08-1.31-3.33-2.4a9.2,9.2,0,0,1,.21-4.55" transform="translate(-754.67 -577.66)"/><path class="cls-1" d="M1043.88,996.28a4,4,0,0,0-.23-2.35c-0.52-.83-3.26-1.25-4.73-3.19,0,0,.57-1.15,3.2-0.9,2.16,0.21,3,1.38,3.17,2.45a10.62,10.62,0,0,1-.27,4.41" transform="translate(-754.67 -577.66)"/><path class="cls-1" d="M1038,988.5a4.19,4.19,0,0,0,.24,2.39c0.52,0.85,3.27,1.32,4.73,3.21,0,0-.57,1.16-3.19,1-2.16-.17-3-1.4-3.18-2.51a10.22,10.22,0,0,1,.28-4.53" transform="translate(-754.67 -577.66)"/><path class="cls-1" d="M1042.88,990.34a4,4,0,0,0-.23-2.34c-0.52-.83-3.27-1.33-4.75-3.3a1.38,1.38,0,0,1,.62-0.53,4.49,4.49,0,0,1,2.59-.28c2.17,0.26,3,1.46,3.18,2.52a9.66,9.66,0,0,1-.3,4.39" transform="translate(-754.67 -577.66)"/><path class="cls-1" d="M1037.07,982.43a5.9,5.9,0,0,0-.12.87,2.67,2.67,0,0,0,.25,1.52c0.53,0.86,3.28,1.4,4.75,3.32,0,0-.57,1.14-3.21.87-2.17-.22-3-1.47-3.19-2.58a8.8,8.8,0,0,1,.43-4.52" transform="translate(-754.67 -577.66)"/><path class="cls-1" d="M1041.89,984.4s0.06-.37.09-0.85a2.85,2.85,0,0,0-.23-1.5c-0.47-.85-3.18-1.42-4.54-3.44,0,0,.63-1.12,3.24-0.73,2.15,0.32,2.91,1.54,3,2.62a11.4,11.4,0,0,1-.48,4.39" transform="translate(-754.67 -577.66)"/><path class="cls-1" d="M1036.39,976.32a4.18,4.18,0,0,0,.11,2.4c0.48,0.88,3.19,1.49,4.55,3.45,0,0-.63,1.13-3.24.79-2.14-.28-2.91-1.55-3-2.67a10.2,10.2,0,0,1,.53-4.51" transform="translate(-754.67 -577.66)"/><path class="cls-1" d="M1041.19,978.42a4,4,0,0,0-.1-2.35c-0.47-.86-3.19-1.5-4.55-3.54,0,0,.63-1.1,3.25-0.65,2.15,0.37,2.91,1.61,3,2.68a9.72,9.72,0,0,1-.55,4.37" transform="translate(-754.67 -577.66)"/><path class="cls-1" d="M1035.76,970.21a5.85,5.85,0,0,0-.17.87,3,3,0,0,0,.23,1.53c0.48,0.89,3.2,1.57,4.56,3.56,0,0-.63,1.11-3.25.71-2.15-.33-2.91-1.62-3-2.74a8.87,8.87,0,0,1,.62-4.5" transform="translate(-754.67 -577.66)"/><path class="cls-1" d="M1040.53,972.43a5.34,5.34,0,0,0,.13-0.85,3.33,3.33,0,0,0-.2-1.5c-0.42-.87-3.1-1.58-4.34-3.68,0,0,.69-1.08,3.28-0.54,2.13,0.44,2.81,1.7,2.87,2.77a11.82,11.82,0,0,1-.66,4.34" transform="translate(-754.67 -577.66)"/><path class="cls-1" d="M1035.42,964.05a4.2,4.2,0,0,0,0,2.41c0.43,0.91,3.11,1.68,4.35,3.7,0,0-.69,1.09-3.28.62-2.12-.39-2.82-1.72-2.88-2.84a10.28,10.28,0,0,1,.78-4.5" transform="translate(-754.67 -577.66)"/><path class="cls-1" d="M1040.1,966.43a4,4,0,0,0,0-2.34c-0.43-.88-3.11-1.69-4.35-3.83,0,0,.7-1.05,3.28-0.42,2.13,0.52,2.82,1.79,2.88,2.87a9.56,9.56,0,0,1-.79,4.3" transform="translate(-754.67 -577.66)"/><path class="cls-1" d="M1035.09,957.89a4.19,4.19,0,0,0,0,2.4c0.43,0.92,3.11,1.79,4.36,3.85,0,0-.7,1.06-3.28.5-2.13-.47-2.82-1.81-2.88-2.94a10.06,10.06,0,0,1,.79-4.46" transform="translate(-754.67 -577.66)"/><path class="cls-1" d="M1039.77,960.44a3.93,3.93,0,0,0,0-2.34c-0.45-.89-3.06-1.82-4.2-4,0,0,.75-1,3.3-0.36,2.1,0.56,2.72,1.89,2.72,3a9.66,9.66,0,0,1-.8,4.27" transform="translate(-754.67 -577.66)"/><path class="cls-1" d="M1035,951.8a4.11,4.11,0,0,0-.15,2.37c0.4,0.91,3,1.85,4.2,4,0,0-.7,1-3.28.38a4,4,0,0,1-2.22-1.3,2.72,2.72,0,0,1-.58-1.7,10,10,0,0,1,1-4.35" transform="translate(-754.67 -577.66)"/><path class="cls-1" d="M1039.58,954.41a4.09,4.09,0,0,0,.16-2.37c-0.38-.92-3-1.83-4.14-4,0,0,.75-1,3.3-0.36,2.1,0.56,2.72,1.89,2.72,3a10,10,0,0,1-1,4.36" transform="translate(-754.67 -577.66)"/><path class="cls-1" d="M1035,945.72a4.1,4.1,0,0,0-.15,2.37c0.38,0.92,3,1.83,4.14,4,0,0-.75,1-3.3.36-2.1-.56-2.72-1.89-2.72-3a10,10,0,0,1,1-4.35" transform="translate(-754.67 -577.66)"/><path class="cls-1" d="M1039.58,948.33a4.09,4.09,0,0,0,.16-2.37c-0.37-.94-3-1.79-4.11-4,0,0,.79-1,3.31-0.27a4.74,4.74,0,0,1,1.29.58,3.39,3.39,0,0,1,.46.36l0.1,0.1,0,0h0c0-.19,0-0.05,0-0.09l0,0,0.17,0.2a2.75,2.75,0,0,1,.57,1.7,10,10,0,0,1-1,4.36" transform="translate(-754.67 -577.66)"/><path class="cls-1" d="M1035.15,939.56a4.15,4.15,0,0,0-.24,2.38,2.91,2.91,0,0,0,.62.78c0.32,0.25.72,0.52,1.14,0.82A7.47,7.47,0,0,1,1039,946s-0.75,1-3.3.36c-2.1-.56-2.72-1.89-2.72-3,0-.23,0-0.45,0-0.66v-0.27l0-.15,0-.29a8.52,8.52,0,0,1,.25-1.08,15.62,15.62,0,0,1,.81-2" transform="translate(-754.67 -577.66)"/><path class="cls-1" d="M1039.59,942.3a4.07,4.07,0,0,0,.25-2.36c-0.34-.93-2.94-1.92-4-4.11,0,0,.79-1,3.31-0.23,2.07,0.64,2.65,2,2.61,3.07a8.75,8.75,0,0,1-.37,2.31c-0.1.34-.22,0.66-0.36,1l-0.21.49-0.12.25v0h0c0,0.08,0-.11,0-0.09h0v0l0,0.07-0.05.13" transform="translate(-754.67 -577.66)"/><path class="cls-1" d="M1035.37,933.46a4.12,4.12,0,0,0-.24,2.37c0.34,0.94,2.94,2,4,4.12,0,0-.79,1-3.32.26-2.08-.62-2.65-2-2.61-3.1a10.09,10.09,0,0,1,1.18-4.34" transform="translate(-754.67 -577.66)"/><path class="cls-1" d="M1039.82,936.25a4,4,0,0,0,.24-2.35c-0.34-.93-2.94-2-4-4.15,0,0,.79-1,3.31-0.2,2.08,0.66,2.65,2,2.61,3.1a9.85,9.85,0,0,1-1.18,4.28" transform="translate(-754.67 -577.66)"/><path class="cls-1" d="M1035.64,927.36a4,4,0,0,0-.29,2.37c0.34,0.94,2.94,2,4,4.16,0,0-.79,1-3.31.23-2.08-.65-2.65-2-2.61-3.12a9.43,9.43,0,0,1,1.24-4.33" transform="translate(-754.67 -577.66)"/><path class="cls-1" d="M1040,930.19a5.64,5.64,0,0,0,.25-0.83,2.88,2.88,0,0,0,0-1.52c-0.32-.93-2.89-2-3.89-4.19,0,0,.81-1,3.32-0.16,2.06,0.68,2.6,2,2.54,3.12a10.6,10.6,0,0,1-1.25,4.27" transform="translate(-754.67 -577.66)"/><path class="cls-1" d="M1036,921.26a4.13,4.13,0,0,0-.3,2.37c0.32,0.94,2.89,2,3.89,4.2,0,0-.81,1-3.32.19-2.06-.67-2.6-2-2.53-3.15a10.06,10.06,0,0,1,1.29-4.32" transform="translate(-754.67 -577.66)"/><path class="cls-1" d="M1040.38,924.14a4,4,0,0,0,.3-2.35c-0.32-.94-2.89-2-3.89-4.24,0,0,.81-1,3.32-0.12,2.06,0.71,2.6,2.06,2.53,3.16a9.86,9.86,0,0,1-1.28,4.25" transform="translate(-754.67 -577.66)"/><path class="cls-1" d="M1036.41,915.16a3.91,3.91,0,0,0-.34,2.37c0.32,0.95,2.89,2,3.89,4.25,0,0-.81,1-3.32.15-2.06-.69-2.6-2.07-2.53-3.18a9.29,9.29,0,0,1,1.34-4.3" transform="translate(-754.67 -577.66)"/><path class="cls-1" d="M1040.75,918.09a4.27,4.27,0,0,0,.33-2.34c-0.3-.94-2.84-2.05-3.79-4.29,0,0,.84-1,3.32-0.08,2,0.73,2.55,2.09,2.46,3.18a10.73,10.73,0,0,1-1.35,4.23" transform="translate(-754.67 -577.66)"/><path class="cls-1" d="M1036.93,909.06a4.15,4.15,0,0,0-.36,2.36c0.29,1,2.84,2.09,3.79,4.29,0,0-.84,1-3.32.11-2-.71-2.55-2.1-2.45-3.21a10.12,10.12,0,0,1,1.39-4.29" transform="translate(-754.67 -577.66)"/><path class="cls-1" d="M1041.24,912.06a4,4,0,0,0,.36-2.34c-0.3-.94-2.84-2.09-3.78-4.35,0,0,.85-1,3.32,0,2,0.77,2.54,2.14,2.45,3.22a9.82,9.82,0,0,1-1.39,4.21" transform="translate(-754.67 -577.66)"/><path class="cls-1" d="M1037.51,903a4,4,0,0,0-.41,2.36c0.3,1,2.84,2.13,3.78,4.35,0,0-.84,1-3.32.06-2-.74-2.54-2.14-2.45-3.25a9.37,9.37,0,0,1,1.47-4.27" transform="translate(-754.67 -577.66)"/><path class="cls-1" d="M1041.75,906a7.61,7.61,0,0,0,.3-0.81,2.87,2.87,0,0,0,.11-1.52c-0.27-.94-2.79-2.13-3.66-4.4,0,0,.86-0.95,3.32,0,2,0.8,2.49,2.17,2.36,3.25a10.66,10.66,0,0,1-1.47,4.18" transform="translate(-754.67 -577.66)"/><path class="cls-1" d="M1038.21,896.89a4.15,4.15,0,0,0-.43,2.35c0.27,1,2.78,2.18,3.66,4.41,0,0-.87,1-3.33,0-2-.77-2.49-2.18-2.36-3.29a10.12,10.12,0,0,1,1.52-4.25" transform="translate(-754.67 -577.66)"/><path class="cls-1" d="M1042.42,900a4,4,0,0,0,.43-2.32c-0.26-.95-2.81-2.19-3.62-4.46,0,0,.89-0.93,3.32.08,2,0.83,2.43,2.21,2.32,3.29a9.8,9.8,0,0,1-1.51,4.16" transform="translate(-754.67 -577.66)"/><path class="cls-1" d="M1039,890.82a4.17,4.17,0,0,0-.5,2.34c0.22,1,2.74,2.23,3.62,4.47,0,0-.87.94-3.32,0-2-.81-2.48-2.22-2.35-3.33a10,10,0,0,1,1.64-4.22" transform="translate(-754.67 -577.66)"/><path class="cls-1" d="M1043.13,894a4,4,0,0,0,.5-2.31c-0.24-1-2.71-2.23-3.52-4.53,0,0,.89-0.91,3.31.15,2,0.88,2.42,2.26,2.26,3.34a9.83,9.83,0,0,1-1.64,4.11" transform="translate(-754.67 -577.66)"/><path class="cls-1" d="M1039.9,884.75a4.16,4.16,0,0,0-.5,2.34c0.24,1,2.7,2.28,3.52,4.54,0,0-.9.92-3.33-0.1-2-.85-2.41-2.27-2.25-3.38a10.08,10.08,0,0,1,1.65-4.2" transform="translate(-754.67 -577.66)"/><path class="cls-1" d="M1044,888a4,4,0,0,0,.5-2.3c-0.26-1-2.66-2.28-3.39-4.6,0,0,.93-0.89,3.31.23,2,0.92,2.34,2.31,2.14,3.37a10.1,10.1,0,0,1-1.65,4.09" transform="translate(-754.67 -577.66)"/><path class="cls-1" d="M1041,878.71a4.18,4.18,0,0,0-.58,2.33c0.22,1,2.6,2.33,3.39,4.61,0,0-.89.9-3.31-0.17-2-.89-2.39-2.33-2.18-3.43a10.24,10.24,0,0,1,1.8-4.17" transform="translate(-754.67 -577.66)"/><path class="cls-1" d="M1045,882.09a4,4,0,0,0,.58-2.28c-0.21-1-2.63-2.35-3.35-4.69,0,0,1-.87,3.31.31,1.94,1,2.32,2.37,2.12,3.44a9.73,9.73,0,0,1-1.78,4" transform="translate(-754.67 -577.66)"/><path class="cls-1" d="M1042.18,872.68a4.14,4.14,0,0,0-.67,2.31c0.2,1,2.62,2.41,3.35,4.71,0,0-.93.88-3.31-0.25-2-.93-2.33-2.38-2.12-3.49a9.29,9.29,0,0,1,1.91-4.13" transform="translate(-754.67 -577.66)"/><path class="cls-1" d="M1046.07,876.16s0.19-.33.38-0.77a2.84,2.84,0,0,0,.27-1.49c-0.17-1-2.54-2.41-3.17-4.78,0,0,1-.84,3.29.41,1.92,1,2.24,2.43,2,3.48a10.76,10.76,0,0,1-1.9,4" transform="translate(-754.67 -577.66)"/><path class="cls-1" d="M1043.53,866.69a4.19,4.19,0,0,0-.68,2.3c0.16,1,2.53,2.49,3.17,4.79,0,0-1,.85-3.31-0.34-1.93-1-2.24-2.45-2-3.54a9.86,9.86,0,0,1,2-4.09" transform="translate(-754.67 -577.66)"/><path class="cls-1" d="M1047.38,870.29A4,4,0,0,0,1048,868c-0.18-1-2.46-2.48-3-4.86,0,0,1-.81,3.28.52,1.88,1.08,2.14,2.49,1.86,3.53a10.41,10.41,0,0,1-2,3.92" transform="translate(-754.67 -577.66)"/><path class="cls-1" d="M1045.13,860.73a4.22,4.22,0,0,0-.78,2.28c0.13,1,2.4,2.56,3,4.88,0,0-1,.83-3.29-0.43-1.94-1-2.18-2.52-1.88-3.61a10.29,10.29,0,0,1,2.16-4" transform="translate(-754.67 -577.66)"/><path class="cls-1" d="M1048.83,864.46a4,4,0,0,0,.77-2.21c-0.1-1-2.48-2.59-2.86-5,0,0,1-.77,3.26.64,1.84,1.16,2,2.54,1.75,3.59a9.6,9.6,0,0,1-2.1,3.83" transform="translate(-754.67 -577.66)"/><path class="cls-1" d="M1046.94,854.83a4.25,4.25,0,0,0-.89,2.25,5.41,5.41,0,0,0,1.23,2,7.9,7.9,0,0,1,1.62,3s-1,.79-3.28-0.55c-1.87-1.11-2.12-2.6-1.8-3.69a10.43,10.43,0,0,1,2.36-3.95" transform="translate(-754.67 -577.66)"/><path class="cls-1" d="M1050.46,858.68a4,4,0,0,0,.88-2.17c-0.08-1-2.31-2.67-2.68-5.1,0,0,1.08-.72,3.24.78,1.75,1.22,2,2.66,1.63,3.67a9.59,9.59,0,0,1-2.29,3.72" transform="translate(-754.67 -577.66)"/><path class="cls-1" d="M1049,849a4.28,4.28,0,0,0-1,2.2c0,1,2.25,2.77,2.67,5.13,0,0-1,.75-3.25-0.68-1.82-1.18-2-2.69-1.63-3.76a7.13,7.13,0,0,1,1.08-2.17,16.23,16.23,0,0,1,1.44-1.68" transform="translate(-754.67 -577.66)"/><path class="cls-1" d="M1052.31,853a3.94,3.94,0,0,0,1-2.12c0-1-2.16-2.76-2.41-5.22,0,0,1.07-.68,3.18.94,1.73,1.33,1.85,2.75,1.47,3.74a10.5,10.5,0,0,1-2.45,3.59" transform="translate(-754.67 -577.66)"/><path class="cls-1" d="M1051.33,843.24a5.93,5.93,0,0,0-.56.7,2.63,2.63,0,0,0-.56,1.46c0,1,2.11,2.88,2.41,5.24,0,0-1.08.7-3.22-.83A3.15,3.15,0,0,1,1048,846a8.89,8.89,0,0,1,2.71-3.75" transform="translate(-754.67 -577.66)"/><path class="cls-1" d="M1054.46,847.42a5.3,5.3,0,0,0,.5-0.68,2.77,2.77,0,0,0,.57-1.38c0-1-2-2.86-2.1-5.34,0,0,1.11-.62,3.11,1.13,1.65,1.43,1.69,2.85,1.25,3.8a11.48,11.48,0,0,1-2.61,3.45" transform="translate(-754.67 -577.66)"/><path class="cls-1" d="M1054,837.63a6,6,0,0,0-.6.66,2.61,2.61,0,0,0-.64,1.44c-0.06,1,1.93,3,2.09,5.37,0,0-1.12.64-3.18-1a3.13,3.13,0,0,1-1.19-3.92,9.06,9.06,0,0,1,1.28-2.08,16.3,16.3,0,0,1,1.66-1.52" transform="translate(-754.67 -577.66)"/><path class="cls-1" d="M1056.9,842a5.36,5.36,0,0,0,.54-0.65,3.08,3.08,0,0,0,.64-1.35c0.09-1-1.81-3-1.75-5.46,0,0,1.15-.54,3,1.34,1.55,1.54,1.5,2.95,1,3.87a8,8,0,0,1-1.31,1.82,19.78,19.78,0,0,1-1.48,1.44" transform="translate(-754.67 -577.66)"/><path class="cls-1" d="M1057.09,832.19a6.07,6.07,0,0,0-.65.62,2.54,2.54,0,0,0-.74,1.39c-0.13,1,1.72,3.14,1.73,5.5,0,0-1.16.56-3.11-1.2a3.13,3.13,0,0,1-.93-4,8.49,8.49,0,0,1,1.43-2,16.21,16.21,0,0,1,1.77-1.41" transform="translate(-754.67 -577.66)"/><path class="cls-1" d="M1059.65,836.75a5.4,5.4,0,0,0,.58-0.61,2.91,2.91,0,0,0,.73-1.29c0.15-.94-1.6-3.1-1.34-5.59a1.36,1.36,0,0,1,.82,0,4.51,4.51,0,0,1,2.1,1.55c1.41,1.65,1.27,3.05.71,3.93a11.86,11.86,0,0,1-3,3" transform="translate(-754.67 -577.66)"/><path class="cls-1" d="M1060.6,827a5.85,5.85,0,0,0-.7.57,2.84,2.84,0,0,0-.88,1.32c-0.2,1,1.48,3.28,1.32,5.62,0,0-1.2.48-3-1.42a3.14,3.14,0,0,1-.62-4.08,8.94,8.94,0,0,1,3.49-3.15" transform="translate(-754.67 -577.66)"/><path class="cls-1" d="M1062.76,831.73l0.64-.55a2.69,2.69,0,0,0,.84-1.21c0.24-.91-1.39-3.25-0.84-5.69a1.48,1.48,0,0,1,.83.11,4.51,4.51,0,0,1,1.93,1.75,4.17,4.17,0,0,1,.86,2.3,2.57,2.57,0,0,1-.51,1.63,11.29,11.29,0,0,1-3.24,2.74" transform="translate(-754.67 -577.66)"/><path class="cls-1" d="M1064.61,822.07a4.58,4.58,0,0,0-1.78,1.78c-0.38,1,1.17,3.4.81,5.72,0,0-1.22.38-2.88-1.66a3.18,3.18,0,0,1-.29-4.14,7.6,7.6,0,0,1,1.86-1.76,15.9,15.9,0,0,1,2-1.15" transform="translate(-754.67 -577.66)"/><path class="cls-1" d="M1066.28,827a3.63,3.63,0,0,0,1.6-1.57,6.9,6.9,0,0,0-.31-2.35,6.75,6.75,0,0,1,.09-3.42s1.27-.18,2.54,2.13a3.86,3.86,0,0,1,.55,2.44,2.82,2.82,0,0,1-.3.91,2.41,2.41,0,0,1-.41.67,8.84,8.84,0,0,1-3.36,2.3" transform="translate(-754.67 -577.66)"/><path class="cls-1" d="M1069,817.67a4.1,4.1,0,0,0-1.82,1.53,5.75,5.75,0,0,0,.13,2.35,9.63,9.63,0,0,1,.06,3.45,1.47,1.47,0,0,1-.79-0.16,4.46,4.46,0,0,1-1.87-1.82,3.31,3.31,0,0,1,.2-4.26,10,10,0,0,1,3.85-2.28" transform="translate(-754.67 -577.66)"/><path class="cls-1" d="M1166.38,1150.79a4,4,0,0,0-2-1.08c-1,0-2.91,2-5.36,2,0,0-.6-1.14,1.15-3.12,1.43-1.62,2.86-1.62,3.82-1.17a9.75,9.75,0,0,1,3.36,2.63" transform="translate(-754.67 -577.66)"/><path class="cls-1" d="M1156.6,1151.18a4.22,4.22,0,0,0,2.08,1.22c1,0.08,3-1.88,5.37-2,0,0,.63,1.11-1,3.16-1.39,1.68-2.9,1.65-3.93,1.16a9.91,9.91,0,0,1-3.53-2.91" transform="translate(-754.67 -577.66)"/><path class="cls-1" d="M1161,1148.29a4,4,0,0,0-2-1.19c-1-.07-3,1.83-5.43,1.82,0,0-.56-1.15,1.25-3.07,1.49-1.59,2.93-1.53,3.88-1a10.05,10.05,0,0,1,3.34,2.83" transform="translate(-754.67 -577.66)"/><path class="cls-1" d="M1151.17,1148.27a4,4,0,0,0,2,1.29c1,0.1,3.05-1.78,5.45-1.82,0,0,.58,1.13-1.18,3.11-1.46,1.63-3,1.54-3.95,1a9.63,9.63,0,0,1-3.41-3" transform="translate(-754.67 -577.66)"/><path class="cls-1" d="M1155.63,1145.54a5.47,5.47,0,0,0-.63-0.58,2.83,2.83,0,0,0-1.35-.68c-1-.12-3.06,1.77-5.49,1.66,0,0-.52-1.18,1.34-3,1.53-1.53,3-1.42,3.91-.9a10.31,10.31,0,0,1,3.26,2.95" transform="translate(-754.67 -577.66)"/><path class="cls-1" d="M1145.84,1145.22a4.19,4.19,0,0,0,2,1.35c1,0.15,3.11-1.69,5.5-1.65,0,0,.54,1.16-1.28,3.07-1.5,1.57-3,1.45-4,.9a10.07,10.07,0,0,1-3.31-3.12" transform="translate(-754.67 -577.66)"/><path class="cls-1" d="M1150.38,1142.61a4,4,0,0,0-1.95-1.32c-1-.14-3.11,1.68-5.53,1.5,0,0-.49-1.19,1.43-3,1.58-1.5,3-1.32,3.93-.78a9.76,9.76,0,0,1,3.17,3" transform="translate(-754.67 -577.66)"/><path class="cls-1" d="M1140.59,1142a4.19,4.19,0,0,0,2,1.39c1,0.17,3.14-1.58,5.54-1.49,0,0,.51,1.17-1.37,3-1.54,1.52-3,1.38-4,.79a10.26,10.26,0,0,1-3.22-3.21" transform="translate(-754.67 -577.66)"/><path class="cls-1" d="M1145.2,1139.54a4,4,0,0,0-1.91-1.37c-1-.15-3.15,1.59-5.57,1.34,0,0-.46-1.2,1.5-3,1.62-1.45,3-1.25,3.95-.67a9.71,9.71,0,0,1,3.1,3.13" transform="translate(-754.67 -577.66)"/><path class="cls-1" d="M1135.43,1138.68a4.18,4.18,0,0,0,1.92,1.45c1,0.19,3.17-1.49,5.58-1.34,0,0,.48,1.18-1.45,3-1.58,1.48-3.09,1.31-4,.68a10.25,10.25,0,0,1-3.14-3.29" transform="translate(-754.67 -577.66)"/><path class="cls-1" d="M1140.11,1136.32a4,4,0,0,0-1.87-1.42c-1-.18-3.2,1.51-5.6,1.2,0,0-.43-1.21,1.58-2.92,1.65-1.41,3.06-1.16,4-.57a9.72,9.72,0,0,1,3,3.21" transform="translate(-754.67 -577.66)"/><path class="cls-1" d="M1130.37,1135.2a4.18,4.18,0,0,0,1.88,1.5c1,0.22,3.21-1.4,5.62-1.19,0,0,.45,1.19-1.53,2.95-1.62,1.44-3.12,1.23-4,.58a10.22,10.22,0,0,1-3-3.37" transform="translate(-754.67 -577.66)"/><path class="cls-1" d="M1135.1,1133a4,4,0,0,0-1.84-1.47c-1-.22-3.25,1.44-5.63,1.06,0,0-.39-1.23,1.66-2.88,1.69-1.37,3.08-1.07,4-.47a9.73,9.73,0,0,1,2.93,3.29" transform="translate(-754.67 -577.66)"/><path class="cls-1" d="M1125.4,1131.6a4.19,4.19,0,0,0,1.83,1.55c1,0.26,3.25-1.33,5.65-1.05,0,0,.42,1.21-1.61,2.91-1.66,1.4-3.14,1.13-4.05.48a10.24,10.24,0,0,1-2.95-3.46" transform="translate(-754.67 -577.66)"/><path class="cls-1" d="M1130.18,1129.49a4,4,0,0,0-1.79-1.53c-0.95-.24-3.27,1.34-5.67.92,0,0-.36-1.24,1.73-2.84,1.71-1.3,3.13-1,4-.38a9.77,9.77,0,0,1,2.84,3.38" transform="translate(-754.67 -577.66)"/><path class="cls-1" d="M1120.51,1127.87a4.21,4.21,0,0,0,1.79,1.61c1,0.28,3.31-1.28,5.68-.92,0,0,.38,1.22-1.68,2.87-1.7,1.35-3.16,1-4.06.37a9.77,9.77,0,0,1-2.86-3.53" transform="translate(-754.67 -577.66)"/><path class="cls-1" d="M1125.35,1125.89a4,4,0,0,0-1.75-1.58c-0.94-.27-3.29,1.24-5.69.78,0,0-.34-1.23,1.8-2.79,1.76-1.28,3.17-1,4-.29a10,10,0,0,1,2.74,3.46" transform="translate(-754.67 -577.66)"/><path class="cls-1" d="M1115.73,1124a5.88,5.88,0,0,0,.51.71,2.73,2.73,0,0,0,1.24.93c1,0.28,3.34-1.19,5.7-.77,0,0,.35,1.23-1.75,2.83-1.73,1.31-3.18,1-4.06.26a9.25,9.25,0,0,1-2.78-3.59" transform="translate(-754.67 -577.66)"/><path class="cls-1" d="M1120.62,1122.16a5.56,5.56,0,0,0-.52-0.69,3,3,0,0,0-1.2-.92c-0.93-.29-3.31,1.14-5.69.61,0,0-.31-1.24,1.87-2.74,1.79-1.23,3.19-.87,4-0.17a10.81,10.81,0,0,1,2.66,3.51" transform="translate(-754.67 -577.66)"/><path class="cls-1" d="M1111,1120.06a4.17,4.17,0,0,0,1.73,1.66c1,0.31,3.36-1.1,5.7-.6,0,0,.31,1.25-1.83,2.78-1.76,1.26-3.2.86-4.06,0.13a9.85,9.85,0,0,1-2.7-3.64" transform="translate(-754.67 -577.66)"/><path class="cls-1" d="M1116,1118.3a4,4,0,0,0-1.69-1.63c-0.94-.3-3.34,1.05-5.7.45,0,0-.27-1.25,1.95-2.69,1.82-1.18,3.2-.77,4,0a10.34,10.34,0,0,1,2.59,3.56" transform="translate(-754.67 -577.66)"/><path class="cls-1" d="M1106.47,1115.95a4.19,4.19,0,0,0,1.67,1.72c0.95,0.34,3.37-1,5.71-.44,0,0,.3,1.24-1.89,2.73-1.82,1.24-3.23.79-4.06,0a10.24,10.24,0,0,1-2.6-3.73" transform="translate(-754.67 -577.66)"/><path class="cls-1" d="M1111.46,1114.33a4,4,0,0,0-1.63-1.69c-0.91-.35-3.42,1-5.73.33,0,0-.23-1.27,2-2.64,1.85-1.13,3.19-.67,4,0a9.69,9.69,0,0,1,2.49,3.63" transform="translate(-754.67 -577.66)"/><path class="cls-1" d="M1102,1111.72a4.19,4.19,0,0,0,1.61,1.78c0.92,0.38,3.4-.9,5.74-0.32,0,0,.26,1.25-2,2.68-1.83,1.17-3.26.72-4.09,0a10.29,10.29,0,0,1-2.47-3.83" transform="translate(-754.67 -577.66)"/><path class="cls-1" d="M1107,1110.26a4,4,0,0,0-1.57-1.75c-0.91-.36-3.4.89-5.75,0.18,0,0-.21-1.26,2.08-2.58,1.88-1.09,3.25-.63,4,0.13a9.79,9.79,0,0,1,2.36,3.72" transform="translate(-754.67 -577.66)"/><path class="cls-1" d="M1097.64,1107.41a3.86,3.86,0,0,0,1.57,1.81c0.93,0.38,3.45-.84,5.76-0.18,0,0,.22,1.26-2,2.63-1.86,1.12-3.27.62-4.07-.17a9.11,9.11,0,0,1-1.5-1.86,15.35,15.35,0,0,1-.89-2" transform="translate(-754.67 -577.66)"/><path class="cls-1" d="M1102.7,1106.06a4.38,4.38,0,0,0-1.54-1.78c-0.89-.39-3.41.79-5.71,0,0,0-.17-1.27,2.15-2.53,1.91-1,3.25-.52,4,0.26a8.57,8.57,0,0,1,1.38,1.86,15.61,15.61,0,0,1,.9,1.91" transform="translate(-754.67 -577.66)"/><path class="cls-1" d="M1093.4,1103a4.18,4.18,0,0,0,1.54,1.84c0.91,0.41,3.46-.73,5.72,0,0,0,.18,1.28-2.11,2.58-1.88,1.07-3.27.51-4-.3a10.21,10.21,0,0,1-2.31-3.91" transform="translate(-754.67 -577.66)"/><path class="cls-1" d="M1098.51,1101.74a4,4,0,0,0-1.5-1.81c-0.91-.4-3.47.74-5.73-0.14,0,0-.13-1.28,2.22-2.47,1.94-1,3.24-.41,4,0.38a9.63,9.63,0,0,1,2.21,3.8" transform="translate(-754.67 -577.66)"/><path class="cls-1" d="M1089.29,1098.38a4.2,4.2,0,0,0,1.47,1.9c0.9,0.44,3.43-.6,5.74.15,0,0,.16,1.26-2.17,2.51-1.91,1-3.34.48-4.06-.38a10.3,10.3,0,0,1-2.16-4" transform="translate(-754.67 -577.66)"/><path class="cls-1" d="M1094.41,1097.33a4,4,0,0,0-1.43-1.87c-0.88-.43-3.46.62-5.75-0.27,0,0-.11-1.27,2.28-2.41,2-.94,3.3-0.37,4,0.45a9.75,9.75,0,0,1,2.06,3.89" transform="translate(-754.67 -577.66)"/><path class="cls-1" d="M1085.28,1093.73a5.76,5.76,0,0,0,.37.8,2.67,2.67,0,0,0,1,1.14c0.9,0.45,3.51-.56,5.76.28,0,0,.12,1.27-2.24,2.46-1.95,1-3.31.35-4.05-.49a8.75,8.75,0,0,1-1.35-2,15.87,15.87,0,0,1-.72-2.07" transform="translate(-754.67 -577.66)"/><path class="cls-1" d="M1090.43,1092.8a4.34,4.34,0,0,0-1.39-1.9c-0.86-.46-3.46.51-5.69-0.47,0,0-.07-1.28,2.35-2.34,2-.88,3.29-0.26,4,0.58a11.2,11.2,0,0,1,2,3.94" transform="translate(-754.67 -577.66)"/><path class="cls-1" d="M1081.42,1088.95a4.19,4.19,0,0,0,1.38,2c0.88,0.49,3.5-.45,5.71.48,0,0,.07,1.29-2.31,2.4-2,.91-3.29.25-4-0.63a10.21,10.21,0,0,1-2-4.09" transform="translate(-754.67 -577.66)"/><path class="cls-1" d="M1086.62,1088.15a4,4,0,0,0-1.35-1.92c-0.86-.48-3.54.46-5.7-0.61,0,0,0-1.29,2.42-2.28,2-.83,3.24-0.12,3.94.7a9.64,9.64,0,0,1,1.88,4" transform="translate(-754.67 -577.66)"/><path class="cls-1" d="M1077.71,1084a4.21,4.21,0,0,0,1.3,2c0.85,0.52,3.48-.32,5.71.62,0,0,.06,1.27-2.37,2.33-2,.86-3.36.2-4-0.7a10.32,10.32,0,0,1-1.81-4.18" transform="translate(-754.67 -577.66)"/><path class="cls-1" d="M1082.89,1083.42a4,4,0,0,0-1.26-2c-0.84-.5-3.5.32-5.7-0.76,0,0,0-1.28,2.47-2.21,2-.77,3.31-0.09,4,0.78a9.74,9.74,0,0,1,1.72,4.06" transform="translate(-754.67 -577.66)"/><path class="cls-1" d="M1074.08,1079.08a3.75,3.75,0,0,0,.31.82,3,3,0,0,0,1,1.21c0.86,0.53,3.54-.26,5.71.77,0,0,0,1.28-2.44,2.26-2,.8-3.32.07-4-0.83a9.14,9.14,0,0,1-1.75-4.19" transform="translate(-754.67 -577.66)"/><path class="cls-1" d="M1079.32,1078.57a4.18,4.18,0,0,0-1.25-2c-0.81-.54-3.48.21-5.62-1,0,0,0-1.28,2.54-2.14,2.05-.7,3.29,0,3.88.93a11.17,11.17,0,0,1,1.64,4.08" transform="translate(-754.67 -577.66)"/><path class="cls-1" d="M1070.67,1074a4.19,4.19,0,0,0,1.2,2.08c0.83,0.56,3.52-.14,5.63,1a1.56,1.56,0,0,1-.32.75,4.49,4.49,0,0,1-2.18,1.44c-2,.75-3.3,0-3.92-1a10.23,10.23,0,0,1-1.61-4.25" transform="translate(-754.67 -577.66)"/><path class="cls-1" d="M1075.9,1073.62a4,4,0,0,0-1.17-2c-0.81-.55-3.54.14-5.67-1.07,0,0,.1-1.29,2.61-2.07,2-.63,3.31.11,3.9,1a9.67,9.67,0,0,1,1.52,4.12" transform="translate(-754.67 -577.66)"/><path class="cls-1" d="M1067.36,1068.78a4.23,4.23,0,0,0,1.1,2.14c0.81,0.59,3.56-.07,5.68,1.08,0,0-.05,1.27-2.56,2.12-2.06.69-3.34-.1-4-1a9.32,9.32,0,0,1-1.46-4.32" transform="translate(-754.67 -577.66)"/><path class="cls-1" d="M1072.55,1068.61a4,4,0,0,0-1.07-2.09c-0.79-.58-3.5,0-5.58-1.26,0,0,.11-1.28,2.66-2,2.09-.59,3.29.21,3.85,1.13a10.47,10.47,0,0,1,1.36,4.19" transform="translate(-754.67 -577.66)"/><path class="cls-1" d="M1064.19,1063.51a4.2,4.2,0,0,0,1.1,2.13c0.8,0.61,3.54,0,5.59,1.27,0,0-.11,1.28-2.63,2-2.07.63-3.3-.22-3.88-1.18a10.19,10.19,0,0,1-1.4-4.32" transform="translate(-754.67 -577.66)"/><path class="cls-1" d="M1069.46,1063.46a4,4,0,0,0-1.07-2.09c-0.79-.58-3.56,0-5.55-1.41,0,0,.17-1.28,2.72-1.92,2.11-.53,3.23.33,3.78,1.26a9.62,9.62,0,0,1,1.32,4.18" transform="translate(-754.67 -577.66)"/><path class="cls-1" d="M1061.23,1058.13a4.2,4.2,0,0,0,1,2.18c0.78,0.64,3.46.19,5.56,1.43,0,0-.12,1.26-2.68,2-2.09.57-3.38-.27-3.88-1.27a10.33,10.33,0,0,1-1.19-4.4" transform="translate(-754.67 -577.66)"/><path class="cls-1" d="M1066.44,1058.25a4,4,0,0,0-1-2.14c-0.76-.62-3.51-0.18-5.53-1.57,0,0,.18-1.26,2.77-1.83,2.13-.47,3.29.39,3.8,1.34a9.76,9.76,0,0,1,1.12,4.26" transform="translate(-754.67 -577.66)"/><path class="cls-1" d="M1058.33,1052.71a4.18,4.18,0,0,0,1,2.19c0.77,0.65,3.54.25,5.54,1.58,0,0-.17,1.27-2.74,1.89-2.11.51-3.3-.4-3.83-1.4a9.48,9.48,0,0,1-1.15-4.39" transform="translate(-754.67 -577.66)"/><path class="cls-1" d="M1063.6,1052.94a4,4,0,0,0-1-2.14c-0.75-.64-3.47-0.29-5.41-1.76,0,0,.23-1.27,2.82-1.75,2.13-.4,3.24.5,3.7,1.48a10.86,10.86,0,0,1,1.06,4.26" transform="translate(-754.67 -577.66)"/><path class="cls-1" d="M1055.71,1047.14a4.2,4.2,0,0,0,.88,2.24c0.74,0.68,3.48.37,5.42,1.77,0,0-.18,1.25-2.78,1.8-2.16.46-3.27-.51-3.76-1.52a10.24,10.24,0,0,1-1-4.45" transform="translate(-754.67 -577.66)"/><path class="cls-1" d="M1060.92,1047.56a4,4,0,0,0-.86-2.19c-0.72-.66-3.5-0.38-5.45-1.87,0,0,.24-1.25,2.86-1.67,2.15-.35,3.27.58,3.73,1.55a9.74,9.74,0,0,1,.89,4.31" transform="translate(-754.67 -577.66)"/><path class="cls-1" d="M1053.15,1041.55a3.77,3.77,0,0,0,.82,2.26c0.74,0.69,3.53.45,5.46,1.89,0,0-.24,1.25-2.84,1.72-2.14.39-3.28-.59-3.76-1.6a9.07,9.07,0,0,1-.75-2.27,14,14,0,0,1-.11-2.19" transform="translate(-754.67 -577.66)"/><path class="cls-1" d="M1058.36,1042.11a4.56,4.56,0,0,0-.81-2.21c-0.69-.69-3.45-0.5-5.31-2.07,0,0,.3-1.25,2.92-1.58,2.15-.28,3.21.69,3.62,1.69a8.77,8.77,0,0,1,.6,2.23,15.1,15.1,0,0,1,.17,2.1" transform="translate(-754.67 -577.66)"/><path class="cls-1" d="M1050.83,1035.85a4.19,4.19,0,0,0,.76,2.28c0.7,0.72,3.48.57,5.31,2.08,0,0-.3,1.26-2.9,1.65-2.14.32-3.22-.7-3.64-1.74a10.24,10.24,0,0,1-.72-4.49" transform="translate(-754.67 -577.66)"/><path class="cls-1" d="M1056,1036.56a4,4,0,0,0-.74-2.23c-0.69-.7-3.48-0.58-5.35-2.18a1.39,1.39,0,0,1,.5-0.65,4.5,4.5,0,0,1,2.47-.84c2.16-.22,3.24.76,3.64,1.76a9.66,9.66,0,0,1,.66,4.34" transform="translate(-754.67 -577.66)"/><path class="cls-1" d="M1048.62,1030.11a4,4,0,0,0,.65,2.32c0.7,0.73,3.51.65,5.36,2.19,0,0-.31,1.24-2.93,1.56-2.16.26-3.25-.77-3.67-1.82a8.93,8.93,0,0,1-.57-4.52" transform="translate(-754.67 -577.66)"/><path class="cls-1" d="M1053.76,1031s0-.37-0.09-0.85a2.82,2.82,0,0,0-.55-1.41c-0.65-.73-3.42-0.69-5.19-2.37,0,0,.37-1.23,3-1.41,2.17-.15,3.18.87,3.53,1.89a11.28,11.28,0,0,1,.49,4.38" transform="translate(-754.67 -577.66)"/><path class="cls-1" d="M1046.62,1024.3a4.18,4.18,0,0,0,.63,2.32c0.66,0.76,3.45.76,5.2,2.38,0,0-.37,1.24-3,1.48-2.15.19-3.18-.88-3.55-1.95a10.24,10.24,0,0,1-.48-4.52" transform="translate(-754.67 -577.66)"/><path class="cls-1" d="M1051.77,1025.31a4,4,0,0,0-.62-2.27c-0.65-.74-3.47-0.77-5.21-2.48,0,0,.43-1.23,3.05-1.33,2.13-.08,3.17,1,3.52,2a9.66,9.66,0,0,1,.42,4.37" transform="translate(-754.67 -577.66)"/><path class="cls-1" d="M1044.75,1018.45a4.22,4.22,0,0,0,.51,2.35c0.63,0.78,3.46.85,5.22,2.49,0,0-.37,1.22-3,1.39-2.17.14-3.21-1-3.57-2a9.23,9.23,0,0,1-.29-4.55" transform="translate(-754.67 -577.66)"/><path class="cls-1" d="M1049.81,1019.62a4,4,0,0,0-.49-2.3c-0.61-.76-3.38-0.88-5.06-2.66,0,0,.44-1.21,3.08-1.24,2.17,0,3.13,1,3.42,2.09a10.58,10.58,0,0,1,.22,4.41" transform="translate(-754.67 -577.66)"/><path class="cls-1" d="M1043.07,1012.53a4.2,4.2,0,0,0,.51,2.35c0.62,0.79,3.4,1,5.06,2.67,0,0-.44,1.21-3.06,1.3-2.16.07-3.13-1.06-3.44-2.14a10.19,10.19,0,0,1-.23-4.54" transform="translate(-754.67 -577.66)"/><path class="cls-1" d="M1048.16,1013.83a4,4,0,0,0-.49-2.3c-0.6-.78-3.43-1-5.06-2.77,0,0,.5-1.2,3.12-1.16,2.13,0,3.1,1.13,3.39,2.17a9.65,9.65,0,0,1,.18,4.39" transform="translate(-754.67 -577.66)"/><path class="cls-1" d="M1041.54,1006.58a4.22,4.22,0,0,0,.38,2.38c0.56,0.82,3.41,1,5.07,2.79,0,0-.44,1.19-3.09,1.22-2.18,0-3.15-1.14-3.46-2.22a9.41,9.41,0,0,1,0-4.56" transform="translate(-754.67 -577.66)"/><path class="cls-1" d="M1096.51,586.35c33.07,8.93,56.28,49.48,80.43,73-7.6,23.38-99.1-10.11-123.37-34.37,0,0,9.15-20.08,25.11-28.22" transform="translate(-754.67 -577.66)"/><path class="cls-2" d="M1156.62,674.21c-8.86-66.51-65.37-90.24-65.37-90.24s10.47-4.19,15-5.43c3.83-1.05,11.53-.87,11.53-0.87S1172.87,600,1156.62,674.21Z" transform="translate(-754.67 -577.66)"/><polygon class="cls-4" points="112.84 334.77 112.84 334.77 112.84 334.78 112.84 334.77"/><circle class="cls-4" cx="112.84" cy="334.77"/><circle class="cls-4" cx="112.84" cy="334.77"/><path class="cls-4" d="M1171.86,672.92c-3.49.93-13.47,7.07-13.47,7.07l-32.69-19.22c7.82,15.15,11.3,42.43,8.89,55.28-4.69,25-24.16,53.86-28.61,57.79-11.4,10.06-28.52,11.66-28.52,11.66s6.87,8.19,24.22,5.46c7.92-1.25,40.36-20.76,44.12-27.84l8.1-29.18,6-13.22s12.38,0.4,19.46-14.89C1184.79,694,1188.64,668.45,1171.86,672.92Z" transform="translate(-754.67 -577.66)"/><path class="cls-5" d="M1179.93,692.21c1.49-5.68.47-11.09-4.46-14-3.83-2.27-7,0-8.8,4a29.45,29.45,0,0,0-1.55,4.82c-0.45,1.69-1.08,6,1.52,6.17,1.22,0.08,2.4-1.63,3.38-.31s-0.71,3.71-.87,5.14c-0.24,2.14,1.12-.09,1.44-0.78a21.19,21.19,0,0,0,1.65-4.36,8.78,8.78,0,0,0-.05-4.22c-0.12-.4-2.15-3.93-2.35-3.61,1.57-2.41,3.77-2.86,6.56.33,3.46,4,.67,12.37-2.06,16.32-0.4.58-1.11,1.48-1.84,2.5a8.14,8.14,0,0,1-1.55,1.18c-1.76,1-2.89.49-4-1-0.51-.65-2.07-3.42-3.12-2.71s0.07,2.16.13,2.93c0.11,1.62-.64,3.23-1,4.77s-0.5,3,1.13,4.09c2.53,1.71,5.34-1.39,6.87-3.41,0.13-.16.28-0.39,0.46-0.64C1174.58,705.64,1179.09,695.4,1179.93,692.21Z" transform="translate(-754.67 -577.66)"/><path class="cls-1" d="M1052.48,619.51A49.63,49.63,0,0,0,1042,655.9s4.91-19.12,20-28.91" transform="translate(-754.67 -577.66)"/><path class="cls-1" d="M1158.49,808.6A72,72,0,0,1,1170.33,820l-2.76-98.14-7.73-1.13c-15.43,13.61-22.65,67.58-6.47,92.34A38.28,38.28,0,0,0,1158.49,808.6Z" transform="translate(-754.67 -577.66)"/><path class="cls-1" d="M1101.42,1122l-10.72-4.34c-4.3,30.36-10.39,76.12,15.85,102.28,22.59,22.52,65.7,19.75,99.21,7.26l14.61-24s-106.3-52.21-106.74-54.26" transform="translate(-754.67 -577.66)"/><path class="cls-2" d="M1097.31,1116.57s-7.38,53.05,3.54,80.67c14.39,36.41,44.56,47.77,99,32.05,46.32-13.36,46-42.29,45.52-57.16s-10.53-52.54-24.75-74.24" transform="translate(-754.67 -577.66)"/><path class="cls-1" d="M1094.91,1105.34c-6.58,3.77-7.08,43.67-7.08,43.67l13.84-22.17,3-5.29,2.51-3.89,1.19-12.79-11.93.13A3.74,3.74,0,0,0,1094.91,1105.34Z" transform="translate(-754.67 -577.66)"/><path class="cls-1" d="M1095.7,1105.11s96.17-15.75,114.15-18.27c5-.7,9.45,4.95,12.73,10.93s9.2,15.76,17.17,32.55c1.66,4,.81,6.33-18.68,10.89-24.57,5.75-59.15,12.09-83,17.15-21.11,4.47-24.23,6.68-26.26-.75C1105.91,1136,1099.58,1106.28,1095.7,1105.11Z" transform="translate(-754.67 -577.66)"/><path class="cls-2" d="M1163.84,1135.79l7.55-1.83,10.86-1.94a4.18,4.18,0,0,1,3.54,2.59c3.81,10.13,7.79,49.1,7.79,49.1s-13.72,4-17.53,3.93c-6.08-.15-6.09-4.78-6.09-4.78l-7.21-35.24h0s-0.69-4.88-1-6.82C1161,1136.79,1163.84,1135.79,1163.84,1135.79Z" transform="translate(-754.67 -577.66)"/><path class="cls-1" d="M1196.07,1178a5.68,5.68,0,0,1-4.4,6.7l-11.43,2.37a5.66,5.66,0,0,1-6.72-4.4l-8.46-40.84a5.68,5.68,0,0,1,4.4-6.73l11.43-2.37a5.7,5.7,0,0,1,6.72,4.43Z" transform="translate(-754.67 -577.66)"/><path class="cls-6" d="M1185.19,1165.34a1.7,1.7,0,0,1-1.32,2l-3.41.71a1.69,1.69,0,0,1-2-1.31l-2.53-12.18a1.69,1.69,0,0,1,1.31-2l3.41-.71a1.7,1.7,0,0,1,2,1.32Z" transform="translate(-754.67 -577.66)"/><path class="cls-1" d="M1115.87,656.21c12,6.61,35.9,25.38,43,23.39,5.43-1.52-30.76-36.81-30.76-36.81" transform="translate(-754.67 -577.66)"/><circle class="cls-11" cx="409.33" cy="136.53" r="4.46"/><circle class="cls-12" cx="408.77" cy="136.08" r="4.46"/><circle class="cls-5" cx="408.54" cy="135.86" r="3.77"/><rect class="cls-10" x="7.01" y="224.74" width="85.99" height="91.76"/><rect class="cls-13" x="0.3" y="222.28" width="99.42" height="47.19"/><path class="cls-13" d="M807.13,793.76c26,7.74,49-9.69,47.4-23.41a13,13,0,0,0-6.12-3.94c-3.49-.79-4.15.69-4.15,0.69s-19.69,16.73-35.11,22.07Z" transform="translate(-754.67 -577.66)"/><path class="cls-5" d="M806.45,793.61a72.88,72.88,0,0,1,17.18-15.95c10-6.73,22.29-11.34,31.06-7.31,0,0-4.19-5.93-6.74-8.65a30.33,30.33,0,0,0-7.54-5.73s-11-2.53-18.19,1.86c-16.55,10.16-15.79,31.79-15.79,31.79Z" transform="translate(-754.67 -577.66)"/><path class="cls-13" d="M802.22,793.76c-26,7.74-49-9.69-47.39-23.41a13,13,0,0,1,6.12-3.94c3.49-.79,4.14.69,4.14,0.69s19.7,16.73,35.12,22.07Z" transform="translate(-754.67 -577.66)"/><path class="cls-5" d="M802.91,793.61a72.93,72.93,0,0,0-17.18-15.95c-10-6.73-22.29-11.34-31.06-7.31,0,0,4.19-5.93,6.74-8.65a30.31,30.31,0,0,1,7.54-5.73s11-2.52,18.18,1.86c16.56,10.16,15.8,31.79,15.8,31.79Z" transform="translate(-754.67 -577.66)"/><path class="cls-13" d="M807.5,795.21a10.07,10.07,0,0,0,.15-5.76,5.42,5.42,0,0,0-3-.63,9.84,9.84,0,0,0-3.1.63c-1.1,2.59.19,5.76,0.19,5.76a10.2,10.2,0,0,0,3,.49A7.18,7.18,0,0,0,807.5,795.21Z" transform="translate(-754.67 -577.66)"/><path class="cls-13" d="M807,790.16a8.39,8.39,0,0,0-4.64.19c-0.55,1.29-.18,2.94,0,4.06" transform="translate(-754.67 -577.66)"/><path class="cls-10" d="M849,911.85c-5.22-2,12.37-39.33,20.71-35.83s3.91,17.74-1.09,24.67-7.5,11.16-8.47,11.74" transform="translate(-754.67 -577.66)"/><path class="cls-5" d="M808.47,886.82c-0.79,0-6.28,7.07-6.28,7.07,13.73,3.6,25.41,9.15,32.9,9.82s28.39-2.34,28.39-2.34c-3.52,5.74,9.28-22,8.93-22.39-6.35-6.34-14-15-15.13-31.38-0.57-8.42-3.06-20.26-4.31-27.64a15.27,15.27,0,0,1-.26-3.32c0.39-6.48-.52-6.58-0.52-6.58s-5.27,1-7.54,7.71c-1.94,5.77-.51,14-1.74,18.44-1.36,4.9-10.57,8.05-19.16,6.87l-5.84,8.27-2.62,13.87" transform="translate(-754.67 -577.66)"/><path class="cls-13" d="M991.64,935c-18.39-15.8-107.49-52-121.89-59a33.79,33.79,0,0,1-4.31,17.55c-6.7,12.11-13.54,19.31-17,17.69,12.74,9.73,58.82,45,72.76,52.6,52.07,28.51,77.54,32.64,77.54,32.64,109.69-63,193.56-96.58,188.23-137.51-4.2-32.3-30.82-38.26-53.63-36.94C1113,823.24,1003.34,925,991.64,935Z" transform="translate(-754.67 -577.66)"/><path class="cls-10" d="M983.34,969s-20.2-6.63-60.54-27.6c-37.22-19.35-57.29-31.5-64.89-36.29-3.89,4.81-7.33,7.19-9.48,6.19,12.74,9.73,58.82,45,72.76,52.6,52.07,28.51,77.54,32.64,77.54,32.64l2.46-1.4C995.57,987.62,983.34,969,983.34,969Z" transform="translate(-754.67 -577.66)"/><path class="cls-10" d="M978.59,983.78L977,990c14.56,5.38,21.76,6.54,21.76,6.54,108.12-62.08,191.14-95.62,188.4-135.75-1.12,2.16-2.39,4.33-3.49,6.71C1160.12,918.4,978.59,983.78,978.59,983.78Z" transform="translate(-754.67 -577.66)"/><path class="cls-5" d="M811.5,895.1c-1.19-.61-29.34-2.39-31.44-7.62-0.27-.68.26-2.66,1.4-3,6.67-1.86,31,2.24,31.71,1.28l1.69-3.59s-11.28-1.14-22.24-2.82c-8.44-1.3-18.56-3.63-19.09-5.86-0.15-.64,0-2.39.85-3,2.58-1.69,12.29-1.3,24.94-.6,8.24,0.46,13.78,1.19,16.5,1.18l0.67-2.45s-12.86-3.8-24.19-7.07c-8.72-2.51-18.16-5.19-18.42-7.61-0.07-.7.29-2.52,1.29-3,3-1.43,13.14.3,26.39,2.76,8.63,1.6,13.75,2.09,16.62,2.46l0.09-2.37c-2.69-2.09-10.78-7.88-12.92-9.3-7.09-4.66-17.29-10-15.37-14.23s17.42,3.81,26.44,8.49c3.49,1.81,9.7,5.32,15.41,7.37" transform="translate(-754.67 -577.66)"/><path class="cls-4" d="M792.31,861.61c7.89,2.27,17.42,5.3,21.93,6.63,0.24-1.1-.58-1.92-1.46-2.81-1.12-1.12-30-8.79-38.6-13.12a4.25,4.25,0,0,0-.29,1.69C774.16,856.43,783.59,859.1,792.31,861.61Z" transform="translate(-754.67 -577.66)"/><path class="cls-4" d="M805.37,844.55c1.75,1.15,8.67,6.32,12.17,8.92a4,4,0,0,0-.24-3.17c-0.76-1.51-20.76-14-27.39-19.73C788.47,834.73,798.42,840,805.37,844.55Z" transform="translate(-754.67 -577.66)"/><path class="cls-4" d="M792.63,879.36c6.41,1,12.93,1.78,17.24,2.28a2.59,2.59,0,0,0-1.73-2.53c-1.21-.4-27.23-4.64-34.54-7.19a4,4,0,0,0-.06,1.59C774.07,875.73,784.19,878.07,792.63,879.36Z" transform="translate(-754.67 -577.66)"/><path class="cls-4" d="M807.69,890.76c-1.88-.38-19.69-0.3-27.68-3.85a1.5,1.5,0,0,0,.06.56c2.09,5.23,30.24,7,31.44,7.62l6.44-2.66C815,892.25,808.19,890.87,807.69,890.76Z" transform="translate(-754.67 -577.66)"/><path class="cls-4" d="M864,896.11c-7.31,1-19-1.45-21.72-1.22-5.74.48-32.23-3.64-34.62-4.12-0.36-.07-7.43.19-8.78,0-1.47,1.77,3.27,3.13,3.27,3.13,13.73,3.6,25.41,9.15,32.9,9.82,5.18,0.46,18.42-.75,25-1.59C861.41,900.31,862.71,898.3,864,896.11Z" transform="translate(-754.67 -577.66)"/><path class="cls-9" d="M794.22,835.88c1.34,0.09,3.3-2.8,2.61-4.11-0.37-.69-5.21-3.94-6.57-1.2C789.3,832.52,793.44,835.83,794.22,835.88Z" transform="translate(-754.67 -577.66)"/><path class="cls-9" d="M779.92,856.81a3.41,3.41,0,0,0,1.32-4.92c-0.46-.61-6.59-2.47-7.22,1.62C773.71,855.6,779.21,857.14,779.92,856.81Z" transform="translate(-754.67 -577.66)"/><path class="cls-9" d="M779.72,875.22a3.21,3.21,0,0,0,.64-4.74c-0.51-.51-6.45-1.51-6.54,2.38C773.79,874.84,779.1,875.61,779.72,875.22Z" transform="translate(-754.67 -577.66)"/><path class="cls-9" d="M786.28,889.42a3.2,3.2,0,0,0,.65-4.74c-0.51-.51-6.34-0.73-6.54,2.38C780.26,889,785.66,889.8,786.28,889.42Z" transform="translate(-754.67 -577.66)"/><path class="cls-9" d="M849.21,811.91s0.38,5.89,1.33,6.27a4.46,4.46,0,0,0,2.09.19s0-.37.07-0.94c0-.28,0-0.55,0-0.8,0.07-1.17.1-2.12,0.1-2.91,0-1.63-.17-3.17-0.62-3.67a8.68,8.68,0,0,0-3,1.37v0.49Z" transform="translate(-754.67 -577.66)"/></svg>